<?xml version="1.0" encoding="UTF-8" standalone="no"?>
<svg
   width="156"
   height="71"
   viewBox="0 0 156 71"
   fill="none"
   version="1.1"
   id="svg26"
   xmlns="http://www.w3.org/2000/svg"
   xmlns:svg="http://www.w3.org/2000/svg">
  <defs
     id="defs26" />
  <mask
     id="path-6-outside-1_4_31"
     maskUnits="userSpaceOnUse"
     x="128.396"
     y="46.2246"
     width="17.9386"
     height="17.0881"
     fill="#000000">
    <rect
       fill="#ffffff"
       x="128.396"
       y="46.224602"
       width="17.938601"
       height="17.0881"
       id="rect5" />
    <path
       d="m 135.904,61.3049 c -1.109,0.1565 -2.354,-0.7666 -2.501,-1.8123 -0.179,-1.2674 0.873,-2.6278 1.883,-3.1419 -0.364,0.1645 -0.722,0.2635 -1.086,0.3149 -1.474,0.2078 -2.878,-0.4666 -3.07,-1.8291 -0.192,-1.3626 0.66,-2.42 1.833,-2.5854 0.934,-0.1319 2.097,0.3181 2.863,1.0503 -0.439,-0.4714 -0.856,-1.2528 -0.974,-2.0924 -0.177,-1.2516 0.549,-2.4044 1.896,-2.5944 1.315,-0.1855 2.327,0.6897 2.508,1.973 0.11,0.7763 -0.028,1.6359 -0.357,2.2802 l 0.052,-0.0882 c 0.563,-0.9358 1.442,-1.5768 2.44,-1.7177 1.141,-0.1609 2.28,0.5833 2.475,1.9616 0.198,1.4101 -1.064,2.4284 -2.458,2.6251 -0.493,0.0534 -0.882,0.0437 -1.147,2e-4 1.149,0.2419 2.525,1.1788 2.715,2.5254 0.137,0.9665 -0.75,2.2389 -1.923,2.4043 -1.045,0.1475 -1.92,-0.4401 -2.5,-1.4571 -0.3,-0.5232 -0.457,-0.9534 -0.509,-1.3178 0.038,1.9823 -0.73,3.3024 -2.14,3.5013 z m 0.623,-7.8439 0.48,-0.2616 c 0.061,-0.2511 0.064,-0.4615 0.042,-0.6199 -0.029,-0.206 -0.212,-0.5842 -0.234,-0.7426 -0.041,-0.2852 0.05,-0.5566 0.304,-0.5923 0.253,-0.0358 0.416,0.1998 0.456,0.485 0.029,0.206 -0.08,0.5769 -0.051,0.7828 0.027,0.1901 0.103,0.3894 0.212,0.5842 l 0.533,0.1186 c 0.368,-0.4881 0.53,-1.2866 0.425,-2.0312 -0.141,-0.9982 -0.866,-1.5583 -1.785,-1.4287 -0.919,0.1297 -1.493,0.8731 -1.352,1.8712 0.105,0.7447 0.484,1.483 0.97,1.8345 z m -1.969,2.7662 c 0.428,-0.0603 0.781,-0.191 1.073,-0.4099 l -0.076,-0.5387 c -0.133,-0.1428 -0.47,-0.2407 -1,-0.2144 -0.513,0.024 -0.805,-0.0965 -0.843,-0.3658 -0.034,-0.2377 0.143,-0.3595 0.333,-0.3864 0.127,-0.0178 0.358,0.0142 0.668,0.1483 0.309,0.134 0.621,0.1708 0.907,0.1305 l 0.063,-0.0089 0.254,-0.4883 c -0.408,-0.6049 -1.475,-1.1815 -2.41,-1.0496 -0.887,0.1252 -1.402,0.9411 -1.277,1.8283 0.134,0.9506 1.072,1.5293 2.308,1.3549 z m 6.385,-0.9008 c 1.235,-0.1743 1.993,-0.9921 1.858,-1.9427 -0.129,-0.9189 -0.877,-1.5243 -1.748,-1.4014 -0.967,0.1363 -1.831,1.0015 -2.042,1.6777 l 0.411,0.3944 0.063,-0.009 0.125,-0.0337 c 0.249,-0.0674 0.496,-0.1507 0.727,-0.3449 0.231,-0.1942 0.41,-0.3002 0.552,-0.3204 0.254,-0.0357 0.396,0.0573 0.43,0.2949 0.038,0.2694 -0.148,0.441 -0.558,0.515 -0.409,0.0739 -0.756,0.2521 -1.023,0.5322 l 0.044,0.5431 c 0.341,0.1296 0.717,0.1574 1.161,0.0948 z m -4.928,4.9288 c 1.061,-0.1498 1.668,-1.6897 1.53,-2.6719 l -0.023,-0.1585 -0.034,-0.1245 -0.529,-0.0869 c -0.333,0.2732 -0.528,0.6078 -0.574,0.9697 -0.044,0.3778 -0.193,0.5767 -0.447,0.6125 -0.19,0.0268 -0.375,-0.141 -0.4,-0.3152 -0.031,-0.2219 0.085,-0.4321 0.327,-0.6602 0.243,-0.2281 0.393,-0.5401 0.434,-0.9338 l -0.348,-0.4033 c -0.817,0.2769 -1.925,1.3543 -1.771,2.4474 0.116,0.8239 1.027,1.4387 1.835,1.3247 z m 4.563,-0.6438 c 0.823,-0.1162 1.511,-0.9726 1.397,-1.7806 -0.157,-1.109 -1.497,-1.7924 -2.38,-1.8618 l -0.222,0.4838 c 0.13,0.3532 0.358,0.5957 0.659,0.7795 0.301,0.1838 0.472,0.3697 0.501,0.5757 0.025,0.1742 -0.111,0.355 -0.285,0.3796 -0.222,0.0313 -0.437,-0.1162 -0.615,-0.4627 -0.176,-0.3306 -0.454,-0.5823 -0.804,-0.7752 l -0.485,0.2299 0.002,0.129 0.022,0.1584 c 0.083,0.5862 0.602,1.5149 1.239,1.9097 0.319,0.1974 0.638,0.2817 0.971,0.2347 z"
       id="path6" />
  </mask>
  <mask
     id="path-8-outside-2_4_31"
     maskUnits="userSpaceOnUse"
     x="0.375077"
     y="39.3925"
     width="19.4614"
     height="18.7693"
     fill="#000000">
    <rect
       fill="#ffffff"
       x="0.37507701"
       y="39.392502"
       width="19.461399"
       height="18.7693"
       id="rect8" />
    <path
       d="M 6.13806,54.173 C 5.05983,53.87 4.29134,52.5239 4.57703,51.5072 4.92332,50.275 6.43403,49.453 7.56561,49.3888 7.16563,49.3927 6.79836,49.3394 6.44409,49.2398 5.01158,48.8372 3.99765,47.6548 4.36991,46.3301 c 0.37227,-1.3246 1.57833,-1.9497 2.71818,-1.6293 0.9088,0.2553 1.79174,1.135 2.19819,2.1135 -0.21144,-0.6079 -0.27901,-1.4911 -0.04959,-2.3075 0.34196,-1.2169 1.47051,-1.98 2.77981,-1.6121 1.2785,0.3593 1.8529,1.5678 1.5023,2.8155 -0.2121,0.7547 -0.6836,1.4864 -1.2443,1.9438 l 0.0833,-0.0597 c 0.8917,-0.6302 1.9545,-0.8634 2.9249,-0.5907 1.109,0.3116 1.8524,1.4513 1.4758,2.7914 -0.3852,1.3709 -1.9504,1.7952 -3.3059,1.4143 -0.4732,-0.1496 -0.8255,-0.3151 -1.0503,-0.4613 0.9546,0.6837 1.8376,2.0953 1.4697,3.4045 -0.2641,0.9396 -1.588,1.7476 -2.7279,1.4273 C 10.1275,55.2941 9.56322,54.4042 9.44168,53.2399 9.37753,52.6402 9.40631,52.1829 9.50587,51.8287 8.7424,53.6584 7.50896,54.5582 6.13806,54.173 Z m 3.7259,-6.9305 0.54484,-0.0463 c 0.1574,-0.2051 0.2444,-0.3967 0.2877,-0.5507 0.0563,-0.2002 0.0413,-0.62 0.0846,-0.774 0.0779,-0.2772 0.2704,-0.4891 0.5168,-0.4198 0.2465,0.0692 0.3004,0.3503 0.2225,0.6276 -0.0562,0.2002 -0.3055,0.4958 -0.3618,0.6961 -0.0519,0.1848 -0.062,0.398 -0.0412,0.6199 l 0.4409,0.3234 c 0.5328,-0.299 1.0024,-0.9648 1.2059,-1.6888 0.2727,-0.9704 -0.166,-1.7751 -1.0594,-2.0261 -0.8934,-0.2511 -1.71779,0.1986 -1.9905,1.1691 -0.20344,0.7239 -0.15369,1.5523 0.14966,2.0696 z m -2.9155,1.7402 c 0.41589,0.1168 0.79181,0.1394 1.14749,0.0565 L 8.24313,48.5155 C 8.17859,48.3312 7.90948,48.106 7.41416,47.9169 6.93424,47.7322 6.71566,47.5046 6.78925,47.2427 c 0.06493,-0.231 0.27574,-0.2715 0.46058,-0.2196 0.12323,0.0346 0.32156,0.1569 0.55121,0.4042 0.22964,0.2474 0.50066,0.4066 0.77792,0.4845 l 0.06162,0.0174 0.42926,-0.3448 C 8.93925,46.8663 8.19444,45.9091 7.28564,45.6537 6.42305,45.4113 5.6232,45.9511 5.3808,46.8137 5.12108,47.7379 5.747,48.645 6.94846,48.9827 Z m 6.20754,1.7444 c 1.2015,0.3376 2.2237,-0.1064 2.4834,-1.0306 0.2511,-0.8934 -0.19,-1.7486 -1.0372,-1.9867 -0.9396,-0.264 -2.0783,0.1805 -2.5441,0.7144 l 0.2177,0.5265 0.0616,0.0173 0.1275,0.0193 c 0.2551,0.0384 0.5146,0.0615 0.8043,-0.0233 0.2898,-0.0848 0.4962,-0.1099 0.6349,-0.0709 0.2464,0.0692 0.3394,0.2117 0.2744,0.4427 -0.0736,0.2619 -0.3128,0.3443 -0.7176,0.2471 -0.4048,-0.0971 -0.7937,-0.0735 -1.1513,0.0754 l -0.178,0.515 c 0.2605,0.256 0.5931,0.4326 1.0244,0.5538 z m -6.49445,2.5293 c 1.03202,0.29 2.20717,-0.8755 2.47554,-1.8305 L 9.18038,51.2718 9.1996,51.1443 8.74998,50.8517 C 8.33511,50.9678 8.02181,51.1956 7.83416,51.5085 7.64218,51.8368 7.42513,51.9586 7.17868,51.8893 6.99384,51.8374 6.89175,51.6093 6.93936,51.4398 6.99996,51.2242 7.19054,51.0783 7.50434,50.967 7.81814,50.8558 8.08089,50.6305 8.2772,50.2868 L 8.12114,49.7776 c -0.85966,-0.0754 -2.30785,0.4649 -2.60653,1.5278 -0.22509,0.8009 0.36137,1.7303 1.14694,1.951 z m 4.43615,1.2467 c 0.801,0.225 1.7746,-0.2825 1.9954,-1.0681 0.303,-1.0782 -0.6494,-2.2433 -1.4292,-2.6619 l -0.3985,0.3534 c -0.0225,0.3759 0.0888,0.6897 0.29,0.979 0.2013,0.2892 0.2836,0.5284 0.2274,0.7287 -0.0477,0.1694 -0.245,0.2801 -0.4144,0.2325 -0.2157,-0.0606 -0.3529,-0.282 -0.3766,-0.6709 -0.028,-0.3735 -0.1811,-0.7157 -0.4242,-1.0333 L 10.0314,51.378 9.98135,51.4969 9.93807,51.651 c -0.16016,0.5699 -0.05886,1.6288 0.36583,2.2467 0.2123,0.309 0.4703,0.5145 0.7938,0.6054 z"
       id="path9" />
  </mask>
  <mask
     id="path-10-outside-3_4_31"
     maskUnits="userSpaceOnUse"
     x="15.6056"
     y="26.5983"
     width="38.4588"
     height="32.0026"
     fill="#000000">
    <rect
       fill="#ffffff"
       x="15.6056"
       y="26.598301"
       width="38.458801"
       height="32.002602"
       id="rect11" />
    <path
       d="m 24.7453,55.8259 -5.597,-17.3944 5.2658,-1.6944 1.0276,3.1935 0.1925,-0.062 c 0.0223,-1.1735 0.3654,-2.2045 1.0293,-3.093 0.6639,-0.8885 1.5923,-1.5246 2.7851,-1.9084 1.2079,-0.3887 2.3419,-0.412 3.4017,-0.0699 1.0599,0.3422 1.8744,0.9965 2.4437,1.9631 l 0.1812,-0.0583 c -0.0082,-1.1388 0.36,-2.1695 1.1045,-3.0923 0.7421,-0.9303 1.7548,-1.6019 3.0383,-2.0149 1.6458,-0.5296 3.1522,-0.4311 4.519,0.2955 1.3644,0.719 2.3418,1.9958 2.9321,3.8304 l 3.7678,11.7095 -5.5376,1.7819 -3.3597,-10.4412 c -0.2794,-0.8682 -0.7147,-1.4571 -1.3059,-1.7668 -0.5936,-0.3172 -1.2452,-0.3616 -1.9549,-0.1333 -0.7625,0.2454 -1.2825,0.6877 -1.5601,1.3268 -0.2724,0.6292 -0.275,1.3591 -0.0078,2.1895 l 3.3415,10.3846 -5.3225,1.7126 -3.3779,-10.4978 c -0.26,-0.8078 -0.6842,-1.3753 -1.2727,-1.7025 -0.5885,-0.3271 -1.2413,-0.3753 -1.9586,-0.1446 -0.4831,0.1555 -0.872,0.4098 -1.1667,0.7629 -0.297,0.3455 -0.4832,0.7637 -0.5586,1.2545 -0.0678,0.4883 -0.0094,1.0194 0.1753,1.5932 L 30.283,54.044 Z"
       id="path12" />
  </mask>
  <mask
     id="path-12-outside-4_4_31"
     maskUnits="userSpaceOnUse"
     x="51.3684"
     y="25.9822"
     width="33.1518"
     height="23.2184"
     fill="#000000">
    <rect
       fill="#ffffff"
       x="51.368401"
       y="25.982201"
       width="33.151798"
       height="23.218399"
       id="rect14" />
    <path
       d="m 54.3516,47.1818 -0.1212,-18.2723 5.5316,-0.0367 0.0223,3.3547 0.2022,-0.0013 c 0.3733,-1.1129 1.0099,-1.9935 1.9097,-2.6419 0.8999,-0.6483 1.9763,-0.9767 3.2294,-0.985 1.2689,-0.0084 2.3575,0.3095 3.2659,0.9539 0.9085,0.6443 1.4892,1.5128 1.7423,2.6056 l 0.1904,-0.0012 c 0.3338,-1.0888 0.9942,-1.9616 1.9812,-2.6185 0.987,-0.6648 2.1546,-1.0017 3.5028,-1.0107 1.7289,-0.0114 3.1363,0.5344 4.2223,1.6375 1.0858,1.0953 1.6352,2.6064 1.648,4.5336 L 81.7601,47 75.9429,47.0386 75.8701,36.0704 c -0.006,-0.912 -0.2446,-1.6044 -0.7156,-2.0771 -0.4712,-0.4807 -1.0795,-0.7185 -1.825,-0.7136 -0.801,0.0053 -1.4297,0.2712 -1.8862,0.7977 -0.4486,0.5185 -0.6701,1.2139 -0.6643,2.0863 l 0.0724,10.9087 -5.5912,0.0371 -0.0731,-11.0277 c -0.0056,-0.8486 -0.2401,-1.5172 -0.7033,-2.0058 -0.4633,-0.4887 -1.0716,-0.7305 -1.825,-0.7255 -0.5076,0.0034 -0.9548,0.1293 -1.3418,0.3777 -0.387,0.2405 -0.6901,0.5835 -0.9092,1.0291 -0.2112,0.4456 -0.3148,0.9697 -0.3108,1.5724 l 0.0717,10.8135 z"
       id="path15" />
  </mask>
  <mask
     id="path-14-outside-5_4_31"
     maskUnits="userSpaceOnUse"
     x="81.596"
     y="27.1693"
     width="27.9738"
     height="27.9738"
     fill="#000000">
    <rect
       fill="#ffffff"
       x="81.596001"
       y="27.1693"
       width="27.973801"
       height="27.973801"
       id="rect17" />
    <path
       d="m 93.0601,39.5616 -2.5773,10.0974 -5.6366,-1.4387 4.5191,-17.7051 5.36,1.3681 -0.8297,3.2506 0.1959,0.05 c 0.6685,-0.9835 1.5538,-1.662 2.6559,-2.0355 1.1041,-0.3812 2.3093,-0.4051 3.6156,-0.0716 1.245,0.3177 2.253,0.8738 3.024,1.6682 0.781,0.7886 1.298,1.7472 1.55,2.8756 0.262,1.1227 0.219,2.3478 -0.128,3.6753 l -2.88,11.2847 -5.6368,-1.4387 2.598,-10.1782 c 0.2587,-0.9816 0.2051,-1.8138 -0.1609,-2.4966 -0.3582,-0.6807 -0.9831,-1.1349 -1.8745,-1.3624 -0.5917,-0.151 -1.1476,-0.1538 -1.6676,-0.0082 -0.5105,0.1398 -0.9494,0.4165 -1.3169,0.8302 -0.3599,0.4157 -0.6299,0.9606 -0.8102,1.6349 z"
       id="path18" />
  </mask>
  <mask
     id="path-16-outside-6_4_31"
     maskUnits="userSpaceOnUse"
     x="100.94"
     y="33.7318"
     width="30.2998"
     height="31.2194"
     fill="#000000">
    <rect
       fill="#ffffff"
       x="100.94"
       y="33.7318"
       width="30.299801"
       height="31.2194"
       id="rect20" />
    <path
       d="m 112.325,57.9028 c -1.732,-0.8456 -3.044,-1.9275 -3.936,-3.2457 -0.885,-1.3147 -1.349,-2.7681 -1.392,-4.3603 -0.04,-1.5993 0.349,-3.2363 1.167,-4.9111 0.821,-1.6819 1.873,-2.9953 3.155,-3.9402 1.293,-0.9485 2.73,-1.4781 4.31,-1.5888 1.588,-0.1071 3.241,0.2586 4.959,1.0973 1.518,0.7412 2.706,1.6611 3.564,2.7597 0.865,1.102 1.369,2.3104 1.513,3.6249 0.154,1.3109 -0.08,2.6486 -0.702,4.0129 l -4.885,-2.3855 c 0.311,-0.8896 0.348,-1.688 0.11,-2.3952 -0.23,-0.7037 -0.719,-1.2382 -1.467,-1.6036 -0.606,-0.2958 -1.22,-0.384 -1.844,-0.2647 -0.619,0.1123 -1.219,0.4371 -1.799,0.9746 -0.57,0.5339 -1.091,1.2854 -1.565,2.2547 -0.473,0.9692 -0.748,1.8496 -0.826,2.6413 -0.067,0.7881 0.044,1.4645 0.333,2.0293 0.292,0.5577 0.742,0.9844 1.347,1.2802 0.485,0.2366 0.963,0.3421 1.435,0.3164 0.478,-0.0223 0.936,-0.1738 1.373,-0.4545 0.441,-0.2879 0.834,-0.7049 1.18,-1.2508 l 4.886,2.3855 c -0.711,1.3297 -1.628,2.3474 -2.749,3.0532 -1.114,0.7092 -2.372,1.0704 -3.773,1.0836 -1.39,0.0095 -2.855,-0.3616 -4.394,-1.1132 z"
       id="path21" />
  </mask>
  <g
     id="g26"
     transform="translate(3.9134111,-0.5854186)">
    <path
       d="m 23.1071,62.3471 c 12,-4.5001 53,-21.9999 96.4999,7.0002"
       stroke="#ffffff"
       stroke-width="3"
       stroke-linecap="round"
       id="path1" />
    <path
       d="m 22.8705,17.641 0.7797,-6.5412 2.9967,5.8664 c 0.1062,0.2078 0.3089,0.3491 0.5405,0.3767 l 6.5412,0.7797 -5.8664,2.9968 c -0.2077,0.1061 -0.349,0.3088 -0.3766,0.5405 l -0.7797,6.5412 -2.9968,-5.8664 C 23.603,22.1269 23.4003,21.9857 23.1686,21.958 l -6.5412,-0.7797 5.8664,-2.9967 c 0.2078,-0.1062 0.349,-0.3089 0.3767,-0.5406 z"
       fill="#ffffff"
       stroke="#fbc7f6"
       id="path2" />
    <path
       d="m 36.8234,7.19198 2.0769,-4.17492 0.6012,4.62409 c 0.0301,0.23138 0.1735,0.43256 0.3824,0.53648 l 4.1749,2.07697 -4.6241,0.6012 c -0.2314,0.0301 -0.4326,0.1734 -0.5365,0.3823 l -2.0769,4.175 -0.6012,-4.6241 C 36.19,10.5576 36.0466,10.3564 35.8377,10.2525 L 31.6628,8.17554 36.2869,7.57435 c 0.2314,-0.03008 0.4325,-0.17347 0.5365,-0.38237 z"
       fill="#ffffff"
       stroke="#fbc7f6"
       id="path3" />
    <path
       d="m 125.833,24.2532 5.099,0.4923 -4.508,2.4319 c -0.206,0.1108 -0.342,0.3166 -0.365,0.5488 l -0.492,5.0989 -2.432,-4.5085 c -0.111,-0.2053 -0.316,-0.342 -0.549,-0.3644 l -5.099,-0.4922 4.509,-2.432 c 0.205,-0.1108 0.342,-0.3166 0.364,-0.5488 l 0.493,-5.0989 2.432,4.5085 c 0.11,0.2053 0.316,0.342 0.548,0.3644 z"
       fill="#ffffff"
       stroke="#fbc7f6"
       id="path4" />
    <path
       d="m 134.671,35.5569 3.201,1.5038 -3.496,0.5344 c -0.23,0.0352 -0.428,0.1831 -0.528,0.3943 l -1.503,3.2006 -0.535,-3.4957 c -0.035,-0.2307 -0.183,-0.4286 -0.394,-0.5278 l -3.201,-1.5038 3.496,-0.5343 c 0.231,-0.0353 0.429,-0.1831 0.528,-0.3943 l 1.504,-3.2006 0.534,3.4956 c 0.035,0.2307 0.183,0.4286 0.394,0.5278 z"
       fill="#ffffff"
       stroke="#fbc7f6"
       id="path5" />
    <path
       d="m 135.904,61.3049 c -1.109,0.1565 -2.354,-0.7666 -2.501,-1.8123 -0.179,-1.2674 0.873,-2.6278 1.883,-3.1419 -0.364,0.1645 -0.722,0.2635 -1.086,0.3149 -1.474,0.2078 -2.878,-0.4666 -3.07,-1.8291 -0.192,-1.3626 0.66,-2.42 1.833,-2.5854 0.934,-0.1319 2.097,0.3181 2.863,1.0503 -0.439,-0.4714 -0.856,-1.2528 -0.974,-2.0924 -0.177,-1.2516 0.549,-2.4044 1.896,-2.5944 1.315,-0.1855 2.327,0.6897 2.508,1.973 0.11,0.7763 -0.028,1.6359 -0.357,2.2802 l 0.052,-0.0882 c 0.563,-0.9358 1.442,-1.5768 2.44,-1.7177 1.141,-0.1609 2.28,0.5833 2.475,1.9616 0.198,1.4101 -1.064,2.4284 -2.458,2.6251 -0.493,0.0534 -0.882,0.0437 -1.147,2e-4 1.149,0.2419 2.525,1.1788 2.715,2.5254 0.137,0.9665 -0.75,2.2389 -1.923,2.4043 -1.045,0.1475 -1.92,-0.4401 -2.5,-1.4571 -0.3,-0.5232 -0.457,-0.9534 -0.509,-1.3178 0.038,1.9823 -0.73,3.3024 -2.14,3.5013 z m 0.623,-7.8439 0.48,-0.2616 c 0.061,-0.2511 0.064,-0.4615 0.042,-0.6199 -0.029,-0.206 -0.212,-0.5842 -0.234,-0.7426 -0.041,-0.2852 0.05,-0.5566 0.304,-0.5923 0.253,-0.0358 0.416,0.1998 0.456,0.485 0.029,0.206 -0.08,0.5769 -0.051,0.7828 0.027,0.1901 0.103,0.3894 0.212,0.5842 l 0.533,0.1186 c 0.368,-0.4881 0.53,-1.2866 0.425,-2.0312 -0.141,-0.9982 -0.866,-1.5583 -1.785,-1.4287 -0.919,0.1297 -1.493,0.8731 -1.352,1.8712 0.105,0.7447 0.484,1.483 0.97,1.8345 z m -1.969,2.7662 c 0.428,-0.0603 0.781,-0.191 1.073,-0.4099 l -0.076,-0.5387 c -0.133,-0.1428 -0.47,-0.2407 -1,-0.2144 -0.513,0.024 -0.805,-0.0965 -0.843,-0.3658 -0.034,-0.2377 0.143,-0.3595 0.333,-0.3864 0.127,-0.0178 0.358,0.0142 0.668,0.1483 0.309,0.134 0.621,0.1708 0.907,0.1305 l 0.063,-0.0089 0.254,-0.4883 c -0.408,-0.6049 -1.475,-1.1815 -2.41,-1.0496 -0.887,0.1252 -1.402,0.9411 -1.277,1.8283 0.134,0.9506 1.072,1.5293 2.308,1.3549 z m 6.385,-0.9008 c 1.235,-0.1743 1.993,-0.9921 1.858,-1.9427 -0.129,-0.9189 -0.877,-1.5243 -1.748,-1.4014 -0.967,0.1363 -1.831,1.0015 -2.042,1.6777 l 0.411,0.3944 0.063,-0.009 0.125,-0.0337 c 0.249,-0.0674 0.496,-0.1507 0.727,-0.3449 0.231,-0.1942 0.41,-0.3002 0.552,-0.3204 0.254,-0.0357 0.396,0.0573 0.43,0.2949 0.038,0.2694 -0.148,0.441 -0.558,0.515 -0.409,0.0739 -0.756,0.2521 -1.023,0.5322 l 0.044,0.5431 c 0.341,0.1296 0.717,0.1574 1.161,0.0948 z m -4.928,4.9288 c 1.061,-0.1498 1.668,-1.6897 1.53,-2.6719 l -0.023,-0.1585 -0.034,-0.1245 -0.529,-0.0869 c -0.333,0.2732 -0.528,0.6078 -0.574,0.9697 -0.044,0.3778 -0.193,0.5767 -0.447,0.6125 -0.19,0.0268 -0.375,-0.141 -0.4,-0.3152 -0.031,-0.2219 0.085,-0.4321 0.327,-0.6602 0.243,-0.2281 0.393,-0.5401 0.434,-0.9338 l -0.348,-0.4033 c -0.817,0.2769 -1.925,1.3543 -1.771,2.4474 0.116,0.8239 1.027,1.4387 1.835,1.3247 z m 4.563,-0.6438 c 0.823,-0.1162 1.511,-0.9726 1.397,-1.7806 -0.157,-1.109 -1.497,-1.7924 -2.38,-1.8618 l -0.222,0.4838 c 0.13,0.3532 0.358,0.5957 0.659,0.7795 0.301,0.1838 0.472,0.3697 0.501,0.5757 0.025,0.1742 -0.111,0.355 -0.285,0.3796 -0.222,0.0313 -0.437,-0.1162 -0.615,-0.4627 -0.176,-0.3306 -0.454,-0.5823 -0.804,-0.7752 l -0.485,0.2299 0.002,0.129 0.022,0.1584 c 0.083,0.5862 0.602,1.5149 1.239,1.9097 0.319,0.1974 0.638,0.2817 0.971,0.2347 z"
       fill="#ffffff"
       id="path7" />
    <path
       d="m 135.286,56.3507 0.454,0.8912 -0.865,-1.8027 z m 0.54,-3.0493 -0.692,0.7228 1.424,-1.4036 z m 3.073,-0.4336 -0.89,-0.455 1.751,0.9645 z m 0.052,-0.0882 -0.857,-0.5153 -0.003,0.0059 z m 2.457,2.869 0.108,0.9941 0.016,-0.0017 0.016,-0.0023 z m -1.147,2e-4 0.162,-0.9868 -0.368,1.9654 z m -1.708,3.4726 0.869,-0.4952 -0.001,-0.0022 z m -0.509,-1.3178 0.99,-0.1397 -1.99,0.1585 z m -1.517,-4.3426 -0.586,0.8102 0.51,0.3697 0.554,-0.3018 z m 0.48,-0.2616 0.478,0.8781 0.388,-0.2113 0.105,-0.4288 z m 0.729,-0.1028 -0.874,0.4858 0.218,0.3929 0.439,0.0975 z m 0.533,0.1186 -0.216,0.9762 0.628,0.1396 0.387,-0.5144 z m -2.638,2.6021 0.6,0.8003 0.473,-0.3546 -0.083,-0.5854 z m -0.076,-0.5387 0.99,-0.1397 -0.044,-0.3121 -0.215,-0.2305 z m -1,-0.2144 0.047,0.9989 0.003,-2e-4 z m 0.158,-0.6039 -0.398,0.9177 v 0 z m 0.97,0.1216 0.14,0.9902 0.509,-0.0719 0.238,-0.4564 z m 0.254,-0.4883 0.887,0.4618 0.275,-0.5281 -0.333,-0.4934 z m 3.074,-0.4336 -0.954,-0.2987 -0.186,0.5913 0.448,0.429 z m 0.411,0.3944 -0.692,0.7216 0.35,0.3365 0.482,-0.0679 z m 0.063,-0.009 0.14,0.9902 0.062,-0.0087 0.06,-0.0162 z m 0.125,-0.0337 -0.262,-0.9652 v 0 z m 0.727,-0.3449 0.643,0.7656 v 0 z m 0.424,0.4895 -0.177,-0.9841 v 0 z m -1.023,0.5322 -0.724,-0.6906 -0.31,0.3246 0.037,0.4473 z m 0.044,0.5431 -0.997,0.0814 0.052,0.6295 0.59,0.2241 z m -2.26,2.1932 0.99,-0.1397 -0.008,-0.0616 -0.017,-0.0601 z m -0.034,-0.1245 0.966,-0.2614 -0.169,-0.6211 -0.634,-0.1043 z m -0.529,-0.0869 0.162,-0.9868 -0.446,-0.0733 -0.35,0.2869 z m -0.574,0.9697 -0.992,-0.1257 -0.001,0.011 z m -0.52,-0.3629 -0.685,-0.7284 v 0 z m 0.434,-0.9338 0.995,0.1047 0.045,-0.4301 -0.283,-0.3275 z m -0.348,-0.4033 0.758,-0.653 -0.44,-0.5104 -0.639,0.2162 z m 3.644,-0.5141 0.079,-0.9969 -0.696,-0.0548 -0.291,0.6337 z m -0.222,0.4838 -0.909,-0.4179 -0.173,0.3763 0.144,0.3885 z m 0.26,1.2721 0.889,-0.4573 -0.006,-0.0124 z m -0.804,-0.7752 0.482,-0.876 -0.448,-0.247 -0.463,0.2195 z m -0.485,0.2299 -0.429,-0.9034 -0.581,0.2758 0.01,0.6434 z m 0.002,0.129 -1,0.0158 0.001,0.0623 0.009,0.0616 z m 1.261,2.0681 -0.526,0.8501 v 0 z m -3.842,0.938 c -0.242,0.0341 -0.574,-0.0479 -0.882,-0.2728 -0.312,-0.2277 -0.464,-0.5012 -0.49,-0.689 l -1.981,0.2794 c 0.122,0.8578 0.667,1.5688 1.291,2.0249 0.629,0.459 1.474,0.7603 2.341,0.6379 z m -1.372,-0.9618 c -0.045,-0.3183 0.06,-0.7324 0.343,-1.1675 0.282,-0.4323 0.671,-0.7742 1.004,-0.9435 l -0.907,-1.7824 c -0.678,0.3448 -1.32,0.9402 -1.772,1.6334 -0.45,0.6905 -0.782,1.5903 -0.649,2.5394 z m 0.482,-3.9137 c -0.275,0.1239 -0.541,0.1974 -0.815,0.2362 l 0.279,1.9804 c 0.454,-0.0641 0.904,-0.1885 1.359,-0.3937 z m -0.815,0.2362 c -1.195,0.1685 -1.858,-0.3974 -1.94,-0.9786 l -1.98,0.2794 c 0.302,2.1437 2.447,2.9267 4.199,2.6796 z m -1.94,-0.9786 c -0.118,-0.8344 0.375,-1.3699 0.982,-1.4555 l -0.279,-1.9804 c -1.738,0.2451 -2.95,1.8246 -2.683,3.7153 z m 0.982,-1.4555 c 0.568,-0.0802 1.437,0.2137 2.032,0.7829 l 1.383,-1.4456 c -0.937,-0.8952 -2.392,-1.5014 -3.694,-1.3177 z m 3.456,-0.6207 c -0.305,-0.3281 -0.627,-0.9228 -0.716,-1.5513 l -1.981,0.2794 c 0.149,1.0508 0.661,2.0189 1.232,2.6335 z m -0.716,-1.5513 c -0.109,-0.7706 0.309,-1.3606 1.046,-1.4645 l -0.28,-1.9804 c -1.957,0.2761 -2.991,1.9916 -2.747,3.7243 z m 1.046,-1.4645 c 0.703,-0.0993 1.265,0.3196 1.378,1.1225 l 1.98,-0.2794 c -0.249,-1.7637 -1.712,-3.0952 -3.638,-2.8235 z m 1.378,1.1225 c 0.083,0.5866 -0.028,1.2367 -0.257,1.6855 l 1.781,0.91 c 0.429,-0.8398 0.593,-1.9089 0.456,-2.8749 z m 1.494,2.65 0.052,-0.0882 -1.721,-1.0189 -0.052,0.0881 z m 0.048,-0.0823 c 0.434,-0.7209 1.07,-1.1507 1.723,-1.2429 l -0.279,-1.9804 c -1.344,0.1896 -2.466,1.0419 -3.158,2.1926 z m 1.723,-1.2429 c 0.598,-0.0844 1.228,0.2843 1.344,1.1111 l 1.981,-0.2794 c -0.273,-1.9299 -1.922,-3.0495 -3.604,-2.8121 z m 1.344,1.1111 c 0.049,0.3426 -0.066,0.6443 -0.34,0.9135 -0.292,0.2858 -0.75,0.5088 -1.267,0.5817 l 0.28,1.9803 c 0.878,-0.1238 1.748,-0.5083 2.386,-1.1333 0.655,-0.6417 1.072,-1.5541 0.922,-2.6216 z m -1.575,1.4912 c -0.434,0.047 -0.728,0.0322 -0.877,0.0076 l -0.324,1.9736 c 0.38,0.0624 0.864,0.067 1.417,0.0071 z m -1.245,1.973 c 0.415,0.0873 0.894,0.3092 1.277,0.6332 0.382,0.3226 0.603,0.6883 0.654,1.0533 l 1.981,-0.2794 c -0.139,-0.9816 -0.701,-1.7577 -1.343,-2.3007 -0.64,-0.5415 -1.423,-0.909 -2.157,-1.0635 z m 1.931,1.6865 c 0.021,0.1473 -0.037,0.4443 -0.275,0.7556 -0.229,0.3001 -0.527,0.4806 -0.797,0.5188 l 0.279,1.9804 c 0.902,-0.1273 1.634,-0.6656 2.107,-1.2847 0.465,-0.6079 0.782,-1.4303 0.667,-2.2495 z m -1.072,1.2744 c -0.508,0.0716 -1.04,-0.1694 -1.492,-0.9621 l -1.737,0.9905 c 0.707,1.2413 1.925,2.1753 3.508,1.952 z m -1.493,-0.9643 c -0.262,-0.4564 -0.359,-0.7633 -0.387,-0.9601 l -1.98,0.2794 c 0.075,0.532 0.294,1.0856 0.632,1.6756 z m -2.377,-0.8016 c 0.017,0.8726 -0.148,1.4938 -0.383,1.8843 -0.217,0.3594 -0.506,0.5529 -0.896,0.608 l 0.279,1.9804 c 1.02,-0.1438 1.819,-0.7099 2.329,-1.5558 0.492,-0.8148 0.692,-1.8449 0.671,-2.9545 z m -0.039,-3.4833 0.48,-0.2616 -0.957,-1.7562 -0.48,0.2616 z m 0.973,-0.9017 c 0.091,-0.3701 0.102,-0.7087 0.061,-0.9976 l -1.981,0.2794 c 0.004,0.0279 0.01,0.1102 -0.022,0.2422 z m 0.061,-0.9976 c -0.02,-0.1375 -0.057,-0.2646 -0.084,-0.3477 -0.029,-0.0904 -0.063,-0.1808 -0.089,-0.2502 -0.029,-0.0782 -0.048,-0.1291 -0.063,-0.1729 -0.019,-0.0576 -0.007,-0.0334 0.002,0.0282 l -1.981,0.2794 c 0.02,0.1408 0.064,0.2716 0.086,0.336 0.026,0.0781 0.059,0.1643 0.082,0.2262 0.026,0.0707 0.045,0.1233 0.059,0.1668 0.017,0.0506 0.012,0.0481 0.007,0.0136 z m -0.234,-0.7426 c 0,4e-4 0.002,0.0118 -0.001,0.0347 -0.002,0.0217 -0.01,0.0691 -0.038,0.1314 -0.029,0.0641 -0.085,0.1512 -0.182,0.2289 -0.101,0.081 -0.217,0.1272 -0.325,0.1426 l -0.28,-1.9804 c -0.515,0.0727 -0.863,0.4087 -1.032,0.7767 -0.151,0.3304 -0.161,0.6748 -0.123,0.9455 z m -0.546,0.5376 c -0.109,0.0153 -0.233,0.003 -0.353,-0.0469 -0.115,-0.0479 -0.192,-0.1162 -0.238,-0.1697 -0.044,-0.052 -0.065,-0.0955 -0.073,-0.1157 -0.009,-0.0214 -0.01,-0.0328 -0.01,-0.0332 l 1.98,-0.2794 c -0.038,-0.2707 -0.143,-0.5989 -0.379,-0.8746 -0.264,-0.3071 -0.691,-0.5336 -1.207,-0.4609 z m -0.674,-0.3655 c -0.009,-0.0599 -0.003,-0.0862 -0.006,-0.0443 -0.003,0.0355 -0.009,0.0802 -0.02,0.1583 -0.009,0.0661 -0.023,0.1656 -0.032,0.264 -0.007,0.092 -0.016,0.2419 0.007,0.4048 l 1.98,-0.2794 c 0.009,0.0599 0.003,0.0862 0.006,0.0443 0.003,-0.0355 0.009,-0.0802 0.02,-0.1583 0.009,-0.0661 0.023,-0.1656 0.032,-0.264 0.008,-0.092 0.016,-0.2419 -0.007,-0.4048 z m -0.051,0.7828 c 0.049,0.3474 0.18,0.6651 0.328,0.9303 l 1.748,-0.9717 c -0.069,-0.1243 -0.091,-0.2051 -0.096,-0.238 z m 0.985,1.4207 0.534,0.1186 0.433,-1.9524 -0.533,-0.1186 z m 1.549,-0.2562 c 0.567,-0.7524 0.748,-1.8379 0.616,-2.7723 l -1.98,0.2794 c 0.078,0.5548 -0.065,1.0662 -0.233,1.2901 z m 0.616,-2.7723 c -0.1,-0.7105 -0.424,-1.3485 -0.97,-1.7814 -0.55,-0.4361 -1.243,-0.5967 -1.945,-0.4978 l 0.279,1.9804 c 0.218,-0.0307 0.347,0.0239 0.424,0.0851 0.081,0.0643 0.191,0.2054 0.232,0.4931 z m -2.915,-2.2792 c -0.699,0.0987 -1.323,0.4432 -1.739,1.0071 -0.415,0.5636 -0.565,1.2699 -0.463,1.994 l 1.98,-0.2794 c -0.039,-0.274 0.027,-0.4385 0.094,-0.5285 0.066,-0.0898 0.188,-0.1818 0.407,-0.2128 z m -2.202,3.0011 c 0.13,0.9225 0.603,1.9472 1.374,2.505 l 1.172,-1.6203 c -0.201,-0.1453 -0.486,-0.5973 -0.566,-1.1641 z m 0.131,5.4512 c 0.552,-0.0779 1.075,-0.257 1.533,-0.5998 l -1.2,-1.6006 c -0.126,0.0951 -0.31,0.1772 -0.613,0.22 z m 1.923,-1.5398 -0.076,-0.5387 -1.98,0.2794 0.076,0.5387 z m -0.335,-1.0813 c -0.259,-0.2773 -0.596,-0.4016 -0.855,-0.4621 -0.28,-0.0656 -0.594,-0.0852 -0.925,-0.0688 l 0.099,1.9975 c 0.198,-0.0098 0.318,0.0064 0.371,0.0189 0.026,0.006 0.023,0.0079 0,-0.0034 -0.022,-0.0105 -0.083,-0.0438 -0.152,-0.1175 z m -1.777,-0.5311 c -0.088,0.0041 -0.145,9e-4 -0.177,-0.0029 -0.034,-0.0042 -0.022,-0.0069 0.017,0.0098 0.042,0.0177 0.126,0.0631 0.206,0.1597 0.086,0.1024 0.132,0.2205 0.147,0.3269 l -1.98,0.2794 c 0.076,0.5426 0.438,0.9004 0.84,1.0724 0.345,0.1478 0.722,0.1674 1.04,0.1526 z m 0.193,0.4935 c 0.011,0.0753 0.009,0.1789 -0.028,0.294 -0.038,0.1156 -0.102,0.2108 -0.173,0.2818 -0.132,0.1314 -0.265,0.1605 -0.316,0.1677 l -0.279,-1.9804 c -0.242,0.0341 -0.558,0.1376 -0.817,0.396 -0.294,0.2931 -0.426,0.7003 -0.367,1.1203 z m -0.517,0.7435 c -0.048,0.0067 -0.077,0.0053 -0.084,0.0049 -0.008,-5e-4 -0.004,-8e-4 0.012,0.0025 0.034,0.0068 0.102,0.0251 0.202,0.0684 l 0.795,-1.8355 c -0.388,-0.1679 -0.818,-0.2752 -1.204,-0.2207 z m 0.13,0.0758 c 0.476,0.2059 0.974,0.2694 1.444,0.203 l -0.279,-1.9804 c -0.1,0.0141 -0.227,0.0041 -0.37,-0.0581 z m 1.444,0.203 0.064,-0.0089 -0.28,-1.9804 -0.063,0.0089 z m 0.811,-0.5372 0.254,-0.4884 -1.774,-0.9237 -0.254,0.4883 z m 0.196,-1.5099 c -0.331,-0.4895 -0.86,-0.8888 -1.413,-1.1472 -0.559,-0.2615 -1.257,-0.4329 -1.966,-0.3329 l 0.28,1.9804 c 0.226,-0.0319 0.529,0.0191 0.839,0.1642 0.317,0.1481 0.525,0.3395 0.603,0.4549 z m -3.379,-1.4801 c -1.524,0.2151 -2.316,1.619 -2.127,2.9582 l 1.98,-0.2794 c -0.03,-0.2151 0.021,-0.3879 0.097,-0.4992 0.07,-0.1031 0.173,-0.1771 0.33,-0.1992 z m -2.127,2.9582 c 0.238,1.6879 1.867,2.427 3.438,2.2054 l -0.28,-1.9804 c -0.437,0.0618 -0.742,-0.021 -0.915,-0.1245 -0.16,-0.0951 -0.24,-0.2203 -0.263,-0.3799 z m 9.822,1.3046 c 1.56,-0.22 2.949,-1.376 2.71,-3.0726 l -1.981,0.2794 c 0.022,0.1529 -0.019,0.2954 -0.151,0.4349 -0.144,0.1513 -0.419,0.3162 -0.857,0.3779 z m 2.71,-3.0726 c -0.199,-1.4055 -1.403,-2.4602 -2.879,-2.2519 l 0.279,1.9804 c 0.266,-0.0376 0.558,0.1186 0.619,0.5509 z m -2.879,-2.2519 c -0.723,0.102 -1.355,0.4641 -1.823,0.8741 -0.461,0.4032 -0.858,0.9358 -1.033,1.4951 l 1.908,0.5973 c 0.037,-0.1169 0.177,-0.3549 0.442,-0.5874 0.258,-0.2258 0.542,-0.3644 0.785,-0.3987 z m -2.594,3.3895 0.411,0.3944 1.384,-1.4432 -0.411,-0.3945 z m 1.243,0.663 0.063,-0.009 -0.279,-1.9803 -0.064,0.0089 z m 0.185,-0.0339 0.124,-0.0338 -0.523,-1.9304 -0.124,0.0337 z m 0.124,-0.0338 c 0.287,-0.0777 0.707,-0.2067 1.109,-0.5445 l -1.286,-1.5313 c -0.061,0.0507 -0.135,0.0883 -0.346,0.1454 z m 1.109,-0.5445 c 0.044,-0.0368 0.08,-0.0652 0.11,-0.0868 0.03,-0.0218 0.049,-0.0342 0.06,-0.0403 0.011,-0.0063 0.007,-0.003 -0.011,0.0038 -0.017,0.0067 -0.055,0.0197 -0.11,0.0275 l -0.279,-1.9804 c -0.449,0.0633 -0.818,0.3448 -1.056,0.5449 z m 0.049,-0.0958 c -0.005,8e-4 -0.049,0.0068 -0.118,-0.0036 -0.073,-0.011 -0.178,-0.0409 -0.286,-0.1141 -0.24,-0.163 -0.289,-0.3867 -0.296,-0.4379 l 1.98,-0.2794 c -0.041,-0.2888 -0.178,-0.6778 -0.561,-0.9378 -0.361,-0.245 -0.75,-0.2426 -0.998,-0.2076 z m -0.7,-0.5556 c -0.009,-0.0603 -0.01,-0.1587 0.028,-0.2739 0.04,-0.118 0.107,-0.2088 0.173,-0.2696 0.11,-0.102 0.18,-0.0881 0.054,-0.0653 l 0.355,1.9682 c 0.283,-0.0512 0.651,-0.1601 0.948,-0.4337 0.354,-0.3275 0.483,-0.7743 0.422,-1.2051 z m 0.255,-0.6088 c -0.597,0.1077 -1.141,0.3774 -1.57,0.8257 l 1.447,1.3812 c 0.107,-0.1119 0.255,-0.1985 0.478,-0.2387 z m -1.843,1.5976 0.044,0.5432 1.994,-0.1627 -0.045,-0.5431 z m 0.686,1.3968 c 0.537,0.2038 1.091,0.2297 1.655,0.15 l -0.279,-1.9804 c -0.323,0.0455 -0.521,0.0158 -0.666,-0.0395 z m -3.272,5.0788 c 0.993,-0.1402 1.63,-0.8974 1.967,-1.5616 0.344,-0.6798 0.515,-1.5161 0.413,-2.2402 l -1.981,0.2794 c 0.037,0.2581 -0.027,0.6829 -0.216,1.056 -0.197,0.3888 -0.395,0.4764 -0.463,0.486 z m 2.38,-3.8018 -0.023,-0.1585 -1.98,0.2794 0.022,0.1585 z m -0.048,-0.2802 -0.033,-0.1245 -1.931,0.5229 0.034,0.1245 z m -0.836,-0.8499 -0.53,-0.0869 -0.324,1.9736 0.529,0.0869 z m -1.326,0.1267 c -0.499,0.409 -0.849,0.9632 -0.932,1.6172 l 1.984,0.2515 c 0.009,-0.0699 0.049,-0.1849 0.216,-0.3223 z m -0.933,1.6282 c -0.011,0.0951 -0.025,0.0481 0.043,-0.0432 0.037,-0.051 0.093,-0.1058 0.167,-0.1496 0.074,-0.0433 0.144,-0.0629 0.196,-0.0702 l 0.28,1.9804 c 0.382,-0.054 0.728,-0.2489 0.968,-0.5758 0.216,-0.2941 0.3,-0.6294 0.332,-0.9121 z m 0.406,-0.263 c 0.243,-0.0343 0.423,0.061 0.515,0.1367 0.087,0.072 0.187,0.1999 0.215,0.3986 l -1.98,0.2794 c 0.053,0.3729 0.258,0.6718 0.492,0.8645 0.238,0.1965 0.605,0.3623 1.038,0.3012 z m 0.73,0.5353 c 0.008,0.0532 0.007,0.1081 -0.003,0.1598 -0.01,0.0503 -0.025,0.0862 -0.035,0.1055 -0.009,0.0183 -0.013,0.0215 -0.004,0.0094 0.01,-0.0122 0.03,-0.0343 0.064,-0.0668 l -1.37,-1.4568 c -0.316,0.2972 -0.733,0.8132 -0.632,1.5283 z m 0.022,0.2079 c 0.44,-0.4133 0.68,-0.958 0.744,-1.5575 l -1.989,-0.2093 c -0.02,0.1878 -0.079,0.2671 -0.125,0.31 z m 0.506,-2.3151 -0.347,-0.4034 -1.515,1.3059 0.348,0.4034 z m -1.426,-0.6976 c -0.613,0.2079 -1.244,0.6701 -1.703,1.2321 -0.457,0.5597 -0.868,1.3759 -0.737,2.3022 l 1.98,-0.2794 c -0.024,-0.1668 0.043,-0.4359 0.306,-0.7574 0.26,-0.3192 0.592,-0.5341 0.796,-0.6032 z m -2.44,3.5343 c 0.104,0.7392 0.552,1.3243 1.071,1.6911 0.518,0.3659 1.2,0.582 1.894,0.4841 l -0.28,-1.9804 c -0.114,0.0161 -0.292,-0.0183 -0.46,-0.1373 -0.167,-0.118 -0.233,-0.2522 -0.245,-0.3369 z m 7.527,1.5314 c 0.706,-0.0995 1.301,-0.5026 1.695,-1.001 0.394,-0.4977 0.656,-1.1813 0.553,-1.9095 l -1.981,0.2794 c 0.012,0.0799 -0.013,0.2285 -0.141,0.39 -0.127,0.1608 -0.286,0.244 -0.405,0.2607 z m 2.248,-2.9105 c -0.132,-0.9319 -0.745,-1.5968 -1.343,-2.0064 -0.601,-0.4109 -1.323,-0.6634 -1.948,-0.7126 l -0.157,1.9938 c 0.256,0.0202 0.646,0.1441 0.975,0.3695 0.332,0.2267 0.467,0.4581 0.492,0.6351 z m -4.278,-2.1401 -0.223,0.4839 1.817,0.8359 0.223,-0.4839 z m -0.252,1.2487 c 0.221,0.5982 0.617,1.0054 1.075,1.2858 l 1.044,-1.7063 c -0.143,-0.0872 -0.203,-0.165 -0.244,-0.2732 z m 1.075,1.2858 c 0.048,0.0294 0.081,0.0529 0.103,0.0699 0.022,0.0172 0.027,0.0239 0.022,0.0187 -0.005,-0.0055 -0.023,-0.0272 -0.043,-0.0663 -0.02,-0.0407 -0.04,-0.0951 -0.049,-0.1601 l 1.98,-0.2794 c -0.095,-0.6781 -0.62,-1.0754 -0.969,-1.2891 z m 0.033,-0.1378 c -0.03,-0.2132 0.041,-0.3858 0.123,-0.4952 0.082,-0.1093 0.229,-0.225 0.442,-0.2551 l 0.279,1.9804 c 0.721,-0.1017 1.238,-0.7884 1.136,-1.5095 z m 0.565,-0.7503 c 0.078,-0.011 0.16,-0.0063 0.239,0.0154 0.078,0.0213 0.134,0.0539 0.169,0.0796 0.062,0.0457 0.052,0.0652 0.006,-0.0247 l -1.779,0.9145 c 0.244,0.4735 0.776,1.118 1.644,0.9956 z m 0.408,0.0578 c -0.288,-0.5407 -0.727,-0.9185 -1.205,-1.1815 l -0.965,1.7519 c 0.223,0.1229 0.34,0.2485 0.404,0.369 z m -2.116,-1.209 -0.485,0.23 0.858,1.8069 0.484,-0.23 z m -1.056,1.1492 0.002,0.129 2,-0.0316 -0.002,-0.129 z m 0.012,0.2529 0.022,0.1584 1.981,-0.2794 -0.023,-0.1584 z m 0.022,0.1584 c 0.067,0.4714 0.285,0.982 0.552,1.4134 0.268,0.4334 0.656,0.9005 1.151,1.2067 l 1.053,-1.7002 c -0.143,-0.0886 -0.333,-0.2833 -0.504,-0.5595 -0.172,-0.2782 -0.255,-0.5249 -0.271,-0.6398 z m 1.703,2.6201 c 0.473,0.2929 1.025,0.4611 1.636,0.3748 l -0.279,-1.9804 c -0.054,0.0076 -0.14,0.0073 -0.304,-0.0946 z"
       fill="#fbc7f6"
       mask="url(#path-6-outside-1_4_31)"
       id="path8" />
    <path
       d="M 6.13806,54.173 C 5.05983,53.87 4.29134,52.5239 4.57703,51.5072 4.92332,50.275 6.43403,49.453 7.56561,49.3888 7.16563,49.3927 6.79836,49.3394 6.44409,49.2398 5.01158,48.8372 3.99765,47.6548 4.36991,46.3301 c 0.37227,-1.3246 1.57833,-1.9497 2.71818,-1.6293 0.9088,0.2553 1.79174,1.135 2.19819,2.1135 -0.21144,-0.6079 -0.27901,-1.4911 -0.04959,-2.3075 0.34196,-1.2169 1.47051,-1.98 2.77981,-1.6121 1.2785,0.3593 1.8529,1.5678 1.5023,2.8155 -0.2121,0.7547 -0.6836,1.4864 -1.2443,1.9438 l 0.0833,-0.0597 c 0.8917,-0.6302 1.9545,-0.8634 2.9249,-0.5907 1.109,0.3116 1.8524,1.4513 1.4758,2.7914 -0.3852,1.3709 -1.9504,1.7952 -3.3059,1.4143 -0.4732,-0.1496 -0.8255,-0.3151 -1.0503,-0.4613 0.9546,0.6837 1.8376,2.0953 1.4697,3.4045 -0.2641,0.9396 -1.588,1.7476 -2.7279,1.4273 C 10.1275,55.2941 9.56322,54.4042 9.44168,53.2399 9.37753,52.6402 9.40631,52.1829 9.50587,51.8287 8.7424,53.6584 7.50896,54.5582 6.13806,54.173 Z m 3.7259,-6.9305 0.54484,-0.0463 c 0.1574,-0.2051 0.2444,-0.3967 0.2877,-0.5507 0.0563,-0.2002 0.0413,-0.62 0.0846,-0.774 0.0779,-0.2772 0.2704,-0.4891 0.5168,-0.4198 0.2465,0.0692 0.3004,0.3503 0.2225,0.6276 -0.0562,0.2002 -0.3055,0.4958 -0.3618,0.6961 -0.0519,0.1848 -0.062,0.398 -0.0412,0.6199 l 0.4409,0.3234 c 0.5328,-0.299 1.0024,-0.9648 1.2059,-1.6888 0.2727,-0.9704 -0.166,-1.7751 -1.0594,-2.0261 -0.8934,-0.2511 -1.71779,0.1986 -1.9905,1.1691 -0.20344,0.7239 -0.15369,1.5523 0.14966,2.0696 z m -2.9155,1.7402 c 0.41589,0.1168 0.79181,0.1394 1.14749,0.0565 L 8.24313,48.5155 C 8.17859,48.3312 7.90948,48.106 7.41416,47.9169 6.93424,47.7322 6.71566,47.5046 6.78925,47.2427 c 0.06493,-0.231 0.27574,-0.2715 0.46058,-0.2196 0.12323,0.0346 0.32156,0.1569 0.55121,0.4042 0.22964,0.2474 0.50066,0.4066 0.77792,0.4845 l 0.06162,0.0174 0.42926,-0.3448 C 8.93925,46.8663 8.19444,45.9091 7.28564,45.6537 6.42305,45.4113 5.6232,45.9511 5.3808,46.8137 5.12108,47.7379 5.747,48.645 6.94846,48.9827 Z m 6.20754,1.7444 c 1.2015,0.3376 2.2237,-0.1064 2.4834,-1.0306 0.2511,-0.8934 -0.19,-1.7486 -1.0372,-1.9867 -0.9396,-0.264 -2.0783,0.1805 -2.5441,0.7144 l 0.2177,0.5265 0.0616,0.0173 0.1275,0.0193 c 0.2551,0.0384 0.5146,0.0615 0.8043,-0.0233 0.2898,-0.0848 0.4962,-0.1099 0.6349,-0.0709 0.2464,0.0692 0.3394,0.2117 0.2744,0.4427 -0.0736,0.2619 -0.3128,0.3443 -0.7176,0.2471 -0.4048,-0.0971 -0.7937,-0.0735 -1.1513,0.0754 l -0.178,0.515 c 0.2605,0.256 0.5931,0.4326 1.0244,0.5538 z m -6.49445,2.5293 c 1.03202,0.29 2.20717,-0.8755 2.47554,-1.8305 L 9.18038,51.2718 9.1996,51.1443 8.74998,50.8517 C 8.33511,50.9678 8.02181,51.1956 7.83416,51.5085 7.64218,51.8368 7.42513,51.9586 7.17868,51.8893 6.99384,51.8374 6.89175,51.6093 6.93936,51.4398 6.99996,51.2242 7.19054,51.0783 7.50434,50.967 7.81814,50.8558 8.08089,50.6305 8.2772,50.2868 L 8.12114,49.7776 c -0.85966,-0.0754 -2.30785,0.4649 -2.60653,1.5278 -0.22509,0.8009 0.36137,1.7303 1.14694,1.951 z m 4.43615,1.2467 c 0.801,0.225 1.7746,-0.2825 1.9954,-1.0681 0.303,-1.0782 -0.6494,-2.2433 -1.4292,-2.6619 l -0.3985,0.3534 c -0.0225,0.3759 0.0888,0.6897 0.29,0.979 0.2013,0.2892 0.2836,0.5284 0.2274,0.7287 -0.0477,0.1694 -0.245,0.2801 -0.4144,0.2325 -0.2157,-0.0606 -0.3529,-0.282 -0.3766,-0.6709 -0.028,-0.3735 -0.1811,-0.7157 -0.4242,-1.0333 L 10.0314,51.378 9.98135,51.4969 9.93807,51.651 c -0.16016,0.5699 -0.05886,1.6288 0.36583,2.2467 0.2123,0.309 0.4703,0.5145 0.7938,0.6054 z"
       fill="#ffffff"
       id="path10" />
    <path
       d="M 7.56561,49.3888 7.6223,50.3872 7.55577,48.3888 Z m 1.72067,-2.5745 -0.9235,0.3836 1.86802,-0.7122 z m 2.98822,0.8397 -0.6321,-0.7748 1.2149,1.5875 z m 0.0833,-0.0597 -0.5772,-0.8166 -0.0056,0.004 z m 1.0948,3.615 -0.3014,0.9535 0.0153,0.0049 0.0156,0.0043 z M 12.4023,50.748 12.9476,49.9098 11.82,51.5609 Z m -2.96062,2.4919 0.99462,-0.1038 -3e-4,-0.0025 z m 0.06419,-1.4112 0.96273,0.2705 -1.88561,-0.6556 z m 0.35809,-4.5862 -0.86265,0.5058 0.31898,0.5441 0.62838,-0.0535 z m 0.54484,-0.0463 0.0847,0.9964 0.4399,-0.0374 0.2688,-0.3503 z m 0.7086,0.1991 -0.9957,0.0931 0.0418,0.4475 0.3625,0.2658 z m 0.4409,0.3234 -0.5913,0.8064 0.5192,0.3808 0.5616,-0.3152 z M 8.09595,49.0392 8.32285,50.0131 8.8987,49.879 9.05866,49.3098 Z M 8.24313,48.5155 9.20584,48.786 9.29112,48.4826 9.18695,48.1851 Z m -0.82897,-0.5986 -0.35922,0.9333 0.00263,10e-4 z m 0.38688,-0.4896 -0.73285,0.6804 v 0 z m 0.83954,0.5019 -0.27054,0.9627 0.49542,0.1392 0.40126,-0.3222 z m 0.42926,-0.3448 0.62615,0.7797 0.46421,-0.3728 -0.1065,-0.5858 z m 2.98826,0.8398 -0.7535,-0.6574 -0.4074,0.4668 0.2368,0.5726 z m 0.2177,0.5265 -0.9242,0.3821 0.1857,0.4491 0.4679,0.1315 z m 0.0616,0.0173 -0.2706,0.9627 0.06,0.0169 0.0615,0.0093 z m 0.1275,0.0193 0.1491,-0.9889 v 0 z m 0.8043,-0.0233 0.2808,0.9597 v 0 z m 0.1917,0.6189 0.2334,-0.9724 v 0 z m -1.1513,0.0754 -0.3842,-0.9233 -0.4144,0.1724 -0.1466,0.4242 z m -0.178,0.515 -0.9451,-0.3266 -0.2063,0.597 0.4504,0.4428 z m -2.95122,1.0985 0.96272,0.2706 0.0168,-0.0599 0.0093,-0.0616 z m 0.01922,-0.1275 0.9888,0.149 0.0959,-0.6363 -0.53932,-0.3509 z M 8.74998,50.8517 9.29536,50.0136 8.91617,49.7668 8.48052,49.8887 Z M 7.83416,51.5085 6.97651,50.9941 6.97092,51.0037 Z M 7.50434,50.967 7.17018,50.0245 v 0 z M 8.2772,50.2868 9.14555,50.7827 9.36002,50.4072 9.23331,49.9937 Z M 8.12114,49.7776 9.07725,49.4845 8.87979,48.8402 8.2085,48.7814 Z m 3.54276,0.9955 0.4729,-0.8811 -0.6145,-0.3298 -0.5219,0.4628 z m -0.3985,0.3534 -0.6635,-0.7481 -0.3099,0.2748 -0.0248,0.4135 z m -0.2736,1.2693 0.9983,-0.0607 -0.0011,-0.014 z m -0.4242,-1.0333 0.794,-0.6078 -0.3112,-0.4066 -0.5118,0.0148 z M 10.0314,51.378 10.0025,50.3785 9.35925,50.3971 9.10967,50.9902 Z M 9.98135,51.4969 9.05963,51.1091 9.03549,51.1665 9.01864,51.2264 Z m 0.32255,2.4008 -0.82417,0.5664 v 0 z M 6.4086,53.2103 C 6.1736,53.1442 5.90238,52.9354 5.71086,52.6056 5.51694,52.2716 5.48842,51.9604 5.53974,51.7778 L 3.61432,51.2367 c -0.23437,0.834 -0.02149,1.7042 0.36697,2.3732 0.39086,0.6731 1.04299,1.2888 1.88623,1.5258 z M 5.53974,51.7778 C 5.6267,51.4683 5.88905,51.1313 6.3239,50.8471 6.75591,50.5648 7.24954,50.4083 7.6223,50.3872 L 7.50891,48.3904 c -0.75882,0.0431 -1.58633,0.3297 -2.27914,0.7825 -0.68997,0.4509 -1.35612,1.141 -1.61545,2.0638 z m 2.01603,-3.389 C 7.25455,48.3918 6.98163,48.3521 6.71463,48.2771 l -0.54108,1.9254 c 0.44155,0.1241 0.90315,0.1911 1.4019,0.1862 z M 6.71463,48.2771 C 5.5529,47.9506 5.17381,47.1658 5.33262,46.6007 L 3.4072,46.0596 c -0.5857,2.0842 1.06305,3.6642 2.76635,4.1429 z M 5.33262,46.6007 C 5.5606,45.7894 6.22745,45.4976 6.81755,45.6635 L 7.35863,43.7381 C 5.66903,43.2632 3.92375,44.2215 3.4072,46.0596 Z m 1.48493,-0.9372 c 0.55223,0.1552 1.22927,0.7738 1.54523,1.5344 L 10.2098,46.4307 C 9.71284,45.2344 8.62399,44.0936 7.35863,43.7381 Z m 3.41325,0.8222 c -0.1472,-0.4231 -0.2031,-1.0972 -0.0314,-1.7084 l -1.92542,-0.541 c -0.2871,1.0216 -0.20788,2.1139 0.0678,2.9065 z m -0.0314,-1.7084 c 0.2105,-0.7491 0.8307,-1.121 1.5465,-0.9199 L 12.287,41.932 c -1.9027,-0.5347 -3.53962,0.6197 -4.01302,2.3043 z m 1.5465,-0.9199 c 0.6844,0.1924 1.0296,0.8016 0.8102,1.5822 l 1.9254,0.5411 C 14.9634,44.2659 14.1596,42.4582 12.287,41.932 Z m 0.8102,1.5822 c -0.1603,0.5703 -0.5232,1.121 -0.9137,1.4396 l 1.2643,1.5497 c 0.7307,-0.5962 1.3109,-1.509 1.5748,-2.4482 z m 0.3012,3.0271 0.0832,-0.0597 -1.1655,-1.6253 -0.0832,0.0597 z m 0.0776,-0.0557 c 0.687,-0.4855 1.4424,-0.6231 2.0772,-0.4447 l 0.5411,-1.9254 c -1.306,-0.367 -2.676,-0.0382 -3.7726,0.7368 z m 2.0772,-0.4447 c 0.5819,0.1635 1.0096,0.7543 0.7837,1.5581 l 1.9254,0.5411 c 0.5273,-1.8763 -0.5318,-3.5648 -2.168,-4.0246 z m 0.7837,1.5581 c -0.0936,0.3331 -0.3197,0.5633 -0.6795,0.6991 -0.3823,0.1443 -0.8912,0.1642 -1.3932,0.0231 l -0.541,1.9254 c 0.8535,0.2399 1.8049,0.238 2.6405,-0.0774 0.8579,-0.3238 1.607,-0.9913 1.8986,-2.0291 z m -2.0418,0.7314 c -0.4164,-0.1316 -0.6794,-0.2634 -0.8064,-0.346 l -1.0907,1.6763 c 0.3226,0.21 0.7643,0.4092 1.2943,0.5767 z m -1.934,1.3051 c 0.3446,0.2469 0.6944,0.643 0.9146,1.0937 0.2192,0.4488 0.2744,0.8725 0.1747,1.2274 l 1.9254,0.5411 c 0.2682,-0.9544 0.0659,-1.8911 -0.3031,-2.6464 -0.368,-0.7533 -0.9371,-1.4048 -1.547,-1.8417 z m 1.0893,2.3211 c -0.0403,0.1432 -0.2128,0.3918 -0.5558,0.581 -0.3307,0.1824 -0.6757,0.228 -0.9388,0.1541 l -0.5411,1.9254 c 0.8767,0.2464 1.7636,0.0481 2.4459,-0.3283 0.6699,-0.3695 1.2914,-0.9947 1.5152,-1.7911 z m -1.4946,0.7351 c -0.494,-0.1388 -0.8837,-0.5735 -0.9784,-1.481 l -1.98922,0.2077 c 0.14835,1.421 0.88723,2.7661 2.42652,3.1987 z M 10.436,53.1336 c -0.0559,-0.5232 -0.0212,-0.8431 0.0326,-1.0344 L 8.54316,51.5581 C 8.39781,52.0754 8.37501,52.67 8.44735,53.3463 Z m -1.85301,-1.69 C 8.2469,52.249 7.84618,52.7514 7.47352,53.0141 7.13046,53.256 6.78831,53.317 6.4086,53.2103 l -0.54108,1.9254 c 0.99119,0.2785 1.95121,0.0822 2.75847,-0.487 0.77764,-0.5483 1.37541,-1.4107 1.80281,-2.4349 z m 1.36568,-3.2047 0.54483,-0.0463 -0.1694,-1.9928 -0.54486,0.0463 z m 1.25353,-0.434 c 0.232,-0.3023 0.3781,-0.608 0.457,-0.8889 L 9.73381,46.375 c -0.00764,0.0272 -0.03566,0.1047 -0.11838,0.2125 z m 0.457,-0.8889 c 0.0376,-0.1336 0.054,-0.2652 0.063,-0.3521 0.0097,-0.0944 0.0155,-0.1906 0.0198,-0.2646 0.0048,-0.0832 0.0078,-0.1375 0.0118,-0.1837 0.0052,-0.0605 0.0068,-0.0334 -0.01,0.0265 L 9.81836,45.601 C 9.7799,45.7379 9.76712,45.8752 9.76125,45.9429 9.75413,46.025 9.7492,46.1171 9.74536,46.183 9.74098,46.2583 9.73728,46.3142 9.73262,46.3596 9.72718,46.4125 9.72439,46.4085 9.73381,46.375 Z m 0.0846,-0.7739 c -10e-5,3e-4 -0.0031,0.0115 -0.0145,0.0315 -0.0108,0.0189 -0.0368,0.0593 -0.088,0.1049 -0.0526,0.0469 -0.1383,0.1043 -0.2583,0.1365 -0.1251,0.0335 -0.2498,0.0291 -0.3556,-6e-4 l 0.5411,-1.9254 c -0.5012,-0.1409 -0.955,0.0267 -1.2572,0.2958 -0.2714,0.2417 -0.41899,0.553 -0.49294,0.8162 z m -0.7164,0.2723 c -0.1059,-0.0298 -0.2146,-0.091 -0.3039,-0.1848 -0.0857,-0.0899 -0.1289,-0.1836 -0.1494,-0.251 -0.0199,-0.0656 -0.0211,-0.1136 -0.0204,-0.1354 7e-4,-0.023 0.0039,-0.0341 0.004,-0.0345 l 1.9254,0.5411 c 0.074,-0.2631 0.1102,-0.6058 0.0044,-0.9534 -0.1178,-0.3872 -0.4179,-0.7666 -0.919,-0.9074 z m -0.4697,-0.6057 c 0.0164,-0.0582 0.0325,-0.0798 0.0123,-0.0429 -0.017,0.0313 -0.0405,0.0698 -0.0818,0.1369 -0.035,0.0569 -0.088,0.1423 -0.1352,0.229 -0.0442,0.0811 -0.1126,0.2148 -0.1571,0.3731 l 1.9254,0.5411 c -0.0163,0.0582 -0.0324,0.0799 -0.0123,0.043 0.0171,-0.0313 0.0405,-0.0699 0.0819,-0.137 0.035,-0.0568 0.0879,-0.1422 0.1352,-0.2289 0.0442,-0.0811 0.1125,-0.2148 0.157,-0.3732 z m -0.3618,0.6961 c -0.0949,0.3378 -0.1024,0.6815 -0.0742,0.9836 l 1.9913,-0.1862 c -0.0132,-0.1416 -6e-4,-0.2243 0.0083,-0.2563 z m 0.3301,1.6969 0.441,0.3234 1.1827,-1.6128 -0.441,-0.3234 z m 1.5218,0.389 c 0.8211,-0.4609 1.4238,-1.3818 1.6791,-2.2902 l -1.9254,-0.5411 c -0.1516,0.5394 -0.4882,0.9501 -0.7326,1.0872 z m 1.6791,-2.2902 c 0.1941,-0.6908 0.1548,-1.405 -0.1712,-2.0211 -0.3285,-0.6207 -0.8984,-1.0467 -1.5803,-1.2383 l -0.5411,1.9254 c 0.2114,0.0594 0.3075,0.1613 0.3536,0.2483 0.0484,0.0916 0.0921,0.2649 0.0136,0.5446 z m -1.7515,-3.2594 c -0.6798,-0.1911 -1.39,-0.1268 -1.99713,0.2223 -0.60675,0.3489 -1.02884,0.9349 -1.22668,1.6389 l 1.92541,0.5411 c 0.0749,-0.2664 0.2014,-0.3905 0.2983,-0.4463 0.0967,-0.0555 0.2454,-0.0906 0.459,-0.0306 z m -3.22381,1.8612 c -0.25203,0.8969 -0.2316,2.0251 0.24972,2.846 L 10.7266,46.7367 C 10.6012,46.5229 10.5222,45.9944 10.677,45.4434 Z m -2.07367,5.0431 c 0.53701,0.1509 1.08806,0.1975 1.64493,0.0677 L 7.86906,48.0653 C 7.71457,48.1013 7.51377,48.1028 7.219,48.02 Z M 9.05866,49.3098 9.20584,48.786 7.28042,48.245 7.13324,48.7687 Z M 9.18695,48.1851 C 9.06163,47.8271 8.80283,47.5775 8.5903,47.4181 8.35966,47.245 8.08027,47.1008 7.77074,46.9826 l -0.71317,1.8686 c 0.18579,0.0709 0.28862,0.1338 0.33251,0.1667 0.02112,0.0158 0.01721,0.0163 6.5e-4,-0.0034 C 7.37554,48.9964 7.33264,48.9412 7.2993,48.8459 Z M 7.77337,46.9837 C 7.6918,46.9523 7.64092,46.9264 7.61316,46.91 c -0.02943,-0.0175 -0.0176,-0.0153 0.01132,0.0156 0.03086,0.033 0.08962,0.1084 0.12457,0.2293 0.03702,0.1281 0.03197,0.2549 0.00291,0.3583 l -1.92542,-0.541 c -0.14824,0.5275 0.03883,1.0005 0.33726,1.3196 0.25637,0.2741 0.59443,0.4442 0.89114,0.5584 z M 7.75196,47.5132 C 7.73138,47.5865 7.68829,47.6806 7.60742,47.7709 7.52629,47.8615 7.42959,47.9229 7.33577,47.9593 7.16222,48.0265 7.0292,47.9999 6.97929,47.9858 L 7.52037,46.0604 C 7.28563,45.9944 6.95478,45.9621 6.61338,46.0943 6.22623,46.2443 5.9413,46.5638 5.82654,46.9722 Z M 6.97929,47.9858 C 6.9331,47.9728 6.90637,47.9595 6.90058,47.9566 6.89323,47.9528 6.89686,47.954 6.9108,47.9638 c 0.02832,0.0199 0.08317,0.064 0.15739,0.1439 l 1.4657,-1.3608 C 8.24623,46.4371 7.89637,46.1661 7.52037,46.0604 Z m 0.0889,0.1219 c 0.35272,0.3799 0.78286,0.6383 1.24023,0.7669 L 8.8495,46.9491 C 8.75236,46.9218 8.64046,46.8617 8.53389,46.7469 Z M 8.30842,48.8746 8.37004,48.8919 8.91112,46.9664 8.8495,46.9491 Z M 9.26672,48.7089 9.69599,48.3641 8.4437,46.8047 8.01444,47.1494 Z M 10.0537,47.4055 C 9.94803,46.8244 9.62372,46.2456 9.22187,45.7868 8.81523,45.3224 8.24505,44.8846 7.55618,44.691 L 7.0151,46.6165 c 0.21992,0.0618 0.47655,0.2303 0.70216,0.4879 0.23042,0.2631 0.3438,0.5219 0.36872,0.659 z M 7.55618,44.691 C 6.07412,44.2745 4.78399,45.2411 4.41809,46.5431 l 1.92542,0.5411 C 6.40229,46.875 6.5189,46.7376 6.63273,46.666 6.73817,46.5998 6.86304,46.5737 7.0151,46.6165 Z m -3.13809,1.8521 c -0.46115,1.641 0.73295,2.9732 2.25983,3.4023 L 7.219,48.02 C 6.79352,47.9004 6.5483,47.7022 6.43088,47.5375 6.32301,47.3863 6.29992,47.2393 6.34351,47.0842 Z m 8.46741,5.1467 c 1.5163,0.4261 3.2531,-0.0733 3.7166,-1.7227 L 14.6767,49.426 c -0.0418,0.1487 -0.1364,0.2627 -0.3136,0.3372 -0.1921,0.0808 -0.5108,0.1208 -0.9366,0.0012 z m 3.7166,-1.7227 c 0.384,-1.3665 -0.2937,-2.8165 -1.7293,-3.22 l -0.5411,1.9254 c 0.2587,0.0728 0.4631,0.3332 0.345,0.7535 z m -1.7293,-3.22 c -0.7032,-0.1976 -1.4267,-0.12 -2.0205,0.0668 -0.5839,0.1837 -1.1625,0.5113 -1.5477,0.9529 l 1.507,1.3148 c 0.0806,-0.0923 0.3043,-0.254 0.641,-0.3599 0.327,-0.1029 0.6426,-0.1156 0.8791,-0.0492 z m -3.7388,2.0591 0.2176,0.5266 1.8483,-0.7641 -0.2177,-0.5266 z m 0.8712,1.1072 0.0616,0.0173 0.5411,-1.9254 -0.0616,-0.0173 z m 0.1831,0.0435 0.1276,0.0192 0.2981,-1.9777 -0.1276,-0.0192 z m 0.1276,0.0192 c 0.2941,0.0443 0.7302,0.0951 1.2341,-0.0524 L 12.9884,48.0042 C 12.9128,48.0263 12.8301,48.031 12.614,47.9984 Z M 13.55,49.9237 c 0.055,-0.016 0.0997,-0.0274 0.1355,-0.0353 0.036,-0.0079 0.0591,-0.0113 0.0711,-0.0127 0.0125,-0.0014 0.0075,0 -0.011,-8e-4 -0.0185,-7e-4 -0.0584,-0.004 -0.1121,-0.0191 l 0.5411,-1.9254 c -0.436,-0.1226 -0.8875,-0.0136 -1.1862,0.0738 z m 0.0835,-0.0679 C 13.6284,49.8544 13.586,49.8422 13.5267,49.8049 13.464,49.7653 13.3804,49.6959 13.3111,49.5855 13.1568,49.3396 13.2018,49.1151 13.2158,49.0653 l 1.9254,0.5411 c 0.079,-0.2808 0.11,-0.6922 -0.1362,-1.0843 -0.232,-0.3696 -0.5888,-0.5238 -0.8304,-0.5917 z m -0.4177,-0.7905 c 0.0165,-0.0587 0.0548,-0.1494 0.1364,-0.2392 0.0837,-0.0921 0.1814,-0.1484 0.2662,-0.1776 0.1421,-0.049 0.2007,-0.008 0.0759,-0.038 l -0.4667,1.9448 c 0.28,0.0672 0.6605,0.1155 1.0419,-0.0158 0.4564,-0.1571 0.754,-0.5143 0.8717,-0.9331 z m 0.4785,-0.4548 c -0.5895,-0.1414 -1.1966,-0.1136 -1.7689,0.1245 l 0.7684,1.8465 c 0.1429,-0.0595 0.3136,-0.079 0.5338,-0.0262 z m -2.3299,0.7211 -0.1779,0.5151 1.8903,0.6532 0.178,-0.515 z m 0.0662,1.5549 c 0.4098,0.4027 0.9058,0.649 1.4549,0.8033 l 0.541,-1.9254 c -0.3135,-0.0881 -0.4827,-0.195 -0.5939,-0.3043 z m -5.03959,3.3326 c 0.96622,0.2715 1.8534,-0.1656 2.42907,-0.6381 0.58927,-0.4836 1.08187,-1.1805 1.27972,-1.8846 L 8.17438,51.1553 c -0.07052,0.251 -0.29969,0.6143 -0.62309,0.8797 -0.337,0.2766 -0.55341,0.2772 -0.61921,0.2587 z m 3.70879,-2.5227 0.0433,-0.154 -1.92543,-0.5411 -0.04329,0.154 z m 0.0694,-0.2755 0.0192,-0.1276 -1.97763,-0.298 -0.01922,0.1275 z M 9.74498,50.3061 9.29536,50.0136 8.20461,51.6899 8.65423,51.9825 Z M 8.48052,49.8887 C 7.85944,50.0625 7.3156,50.4288 6.97656,50.9942 l 1.7152,1.0286 c 0.03626,-0.0605 0.11901,-0.1497 0.32769,-0.208 z m -1.5096,1.115 c -0.04832,0.0826 -0.04147,0.0344 0.05672,-0.0222 0.0549,-0.0316 0.12795,-0.0594 0.21381,-0.0695 0.08505,-0.01 0.15707,4e-4 0.20777,0.0146 L 6.90814,52.852 c 0.3718,0.1045 0.76638,0.065 1.11791,-0.1375 0.31633,-0.1823 0.5277,-0.4556 0.67136,-0.7012 z m 0.4783,-0.0771 c 0.23623,0.0664 0.36217,0.2259 0.41569,0.3321 0.05089,0.101 0.09143,0.2585 0.03716,0.4517 L 5.97665,51.1693 c -0.10188,0.3626 -0.0341,0.7189 0.10214,0.9893 0.13887,0.2756 0.40827,0.5751 0.82935,0.6934 z m 0.45285,0.7838 C 7.88752,51.7621 7.86414,51.8118 7.83442,51.8553 7.80551,51.8975 7.77724,51.9242 7.76044,51.938 7.74455,51.951 7.73933,51.9521 7.75312,51.945 7.76692,51.9378 7.79383,51.9254 7.83849,51.9096 L 7.17018,50.0245 c -0.40883,0.145 -0.99817,0.4496 -1.19353,1.1448 z M 7.83849,51.9096 C 8.40701,51.708 8.84657,51.3062 9.14555,50.7827 l -1.7367,-0.9919 c -0.09364,0.164 -0.17959,0.2128 -0.23867,0.2337 z M 9.23331,49.9937 9.07725,49.4845 7.16503,50.0706 7.32109,50.5798 Z M 8.2085,48.7814 C 7.56327,48.7248 6.79962,48.8941 6.15313,49.2238 5.50932,49.5522 4.805,50.1342 4.5519,51.0348 l 1.92542,0.5411 c 0.04557,-0.1622 0.21469,-0.3818 0.58456,-0.5705 0.36719,-0.1872 0.75746,-0.2505 0.97191,-0.2317 z m -3.6566,2.2534 c -0.20196,0.7187 -0.02752,1.4345 0.30037,1.9793 0.32698,0.5433 0.86407,1.0154 1.53874,1.205 L 6.93208,52.2937 C 6.82118,52.2625 6.67226,52.1596 6.56589,51.9828 6.46043,51.8076 6.45419,51.6582 6.47732,51.5759 Z m 6.2753,4.431 c 0.6856,0.1926 1.3934,0.0634 1.9545,-0.2344 0.5604,-0.2974 1.0751,-0.8179 1.2741,-1.5258 l -1.9255,-0.5411 c -0.0218,0.0776 -0.1042,0.2037 -0.2861,0.3002 -0.1811,0.0961 -0.3606,0.1081 -0.476,0.0756 z m 3.2286,-1.7602 c 0.2546,-0.9061 -0.039,-1.7614 -0.4222,-2.3772 -0.3845,-0.6178 -0.9437,-1.1395 -1.4968,-1.4364 l -0.9458,1.7622 c 0.2268,0.1218 0.5336,0.392 0.7445,0.7309 0.2121,0.3409 0.2432,0.6073 0.1948,0.7794 z m -3.0554,-3.6806 -0.3985,0.3534 1.3271,1.4963 0.3984,-0.3534 z m -0.7332,1.0417 c -0.0381,0.6366 0.1603,1.1687 0.4674,1.6099 l 1.6417,-1.1423 c -0.0955,-0.1372 -0.1196,-0.2327 -0.1126,-0.3479 z m 0.4674,1.6099 c 0.0322,0.0463 0.053,0.0811 0.0658,0.1053 0.013,0.0245 0.015,0.0327 0.0128,0.026 -0.0022,-0.007 -0.0101,-0.0342 -0.0125,-0.0779 -0.0024,-0.0455 0.0016,-0.1031 0.0193,-0.1664 l 1.9255,0.5411 c 0.1852,-0.6592 -0.1352,-1.234 -0.3692,-1.5704 z m 0.0854,-0.113 c 0.0583,-0.2072 0.1925,-0.3368 0.3118,-0.4038 0.1194,-0.067 0.2999,-0.114 0.5071,-0.0558 l -0.5411,1.9254 c 0.7012,0.1971 1.4506,-0.2236 1.6477,-0.9247 z m 0.8189,-0.4596 c 0.0756,0.0213 0.1494,0.0588 0.2132,0.1106 0.0624,0.0507 0.101,0.1032 0.1226,0.1408 0.0385,0.0667 0.0214,0.0806 0.0153,-0.0203 l -1.99631,0.1215 c 0.03231,0.5314 0.26051,1.3357 1.10411,1.5728 z m 0.3501,0.2171 c -0.0457,-0.6108 -0.296,-1.1335 -0.6274,-1.5664 l -1.58808,1.2157 c 0.15488,0.2023 0.21092,0.364 0.22112,0.5002 z m -1.4504,-1.9582 -0.5361,0.0156 0.0578,1.9991 0.5362,-0.0155 z m -1.42893,0.6273 -0.05004,0.1189 1.84347,0.7757 0.05,-0.1189 z m -0.09103,0.2362 -0.04328,0.154 1.92544,0.5411 0.0433,-0.154 z m -0.04328,0.154 C 8.84657,51.8387 8.8405,52.3938 8.9115,52.8963 8.98282,53.401 9.15035,53.9848 9.47973,54.4641 L 11.128,53.3313 c -0.0953,-0.1386 -0.1907,-0.3932 -0.2362,-0.7149 -0.0458,-0.324 -0.0224,-0.5833 0.009,-0.6949 z m 0.50437,3.0837 c 0.31503,0.4584 0.75287,0.8346 1.34747,1.0017 l 0.541,-1.9255 c -0.0523,-0.0147 -0.1306,-0.0494 -0.2402,-0.209 z"
       fill="#fbc7f6"
       mask="url(#path-8-outside-2_4_31)"
       id="path11" />
    <path
       d="m 24.7453,55.8259 -5.597,-17.3944 5.2658,-1.6944 1.0276,3.1935 0.1925,-0.062 c 0.0223,-1.1735 0.3654,-2.2045 1.0293,-3.093 0.6639,-0.8885 1.5923,-1.5246 2.7851,-1.9084 1.2079,-0.3887 2.3419,-0.412 3.4017,-0.0699 1.0599,0.3422 1.8744,0.9965 2.4437,1.9631 l 0.1812,-0.0583 c -0.0082,-1.1388 0.36,-2.1695 1.1045,-3.0923 0.7421,-0.9303 1.7548,-1.6019 3.0383,-2.0149 1.6458,-0.5296 3.1522,-0.4311 4.519,0.2955 1.3644,0.719 2.3418,1.9958 2.9321,3.8304 l 3.7678,11.7095 -5.5376,1.7819 -3.3597,-10.4412 c -0.2794,-0.8682 -0.7147,-1.4571 -1.3059,-1.7668 -0.5936,-0.3172 -1.2452,-0.3616 -1.9549,-0.1333 -0.7625,0.2454 -1.2825,0.6877 -1.5601,1.3268 -0.2724,0.6292 -0.275,1.3591 -0.0078,2.1895 l 3.3415,10.3846 -5.3225,1.7126 -3.3779,-10.4978 c -0.26,-0.8078 -0.6842,-1.3753 -1.2727,-1.7025 -0.5885,-0.3271 -1.2413,-0.3753 -1.9586,-0.1446 -0.4831,0.1555 -0.872,0.4098 -1.1667,0.7629 -0.297,0.3455 -0.4832,0.7637 -0.5586,1.2545 -0.0678,0.4883 -0.0094,1.0194 0.1753,1.5932 L 30.283,54.044 Z"
       fill="#fbc7f6"
       id="path13" />
    <path
       d="m 24.7453,55.8259 -1.9038,0.6126 0.6126,1.9039 1.9038,-0.6126 z m -5.597,-17.3944 -0.6127,-1.9039 -1.9038,0.6127 0.6126,1.9038 z m 5.2658,-1.6944 1.9039,-0.6126 -0.6126,-1.9039 -1.9039,0.6126 z m 1.0276,3.1935 -1.9038,0.6126 0.6126,1.9039 1.9038,-0.6127 z m 0.1925,-0.062 0.6127,1.9039 1.3599,-0.4376 0.0271,-1.4283 z m 1.0293,-3.093 1.6021,1.1972 v 0 z m 6.1868,-1.9783 -0.6144,1.9033 v 0 z m 2.4437,1.9631 -1.7233,1.015 0.8123,1.3791 1.5236,-0.4903 z m 0.1812,-0.0583 0.6126,1.9038 1.3979,-0.4498 -0.0105,-1.4684 z m 1.1045,-3.0923 1.5566,1.2559 0.0069,-0.0087 z m 7.5573,-1.7194 -0.9387,1.766 0.0063,0.0034 z m 6.6999,15.5399 0.6127,1.9039 1.9038,-0.6126 -0.6126,-1.9039 z m -5.5376,1.7819 -1.9039,0.6126 0.6126,1.9039 1.9039,-0.6127 z m -4.6656,-12.208 -0.9425,1.764 0.0072,0.0039 0.0074,0.0038 z m -3.515,1.1935 -1.8345,-0.7966 -8e-4,0.002 z m 3.3337,12.5741 0.6126,1.9038 1.9039,-0.6126 -0.6127,-1.9038 z m -5.3225,1.7126 -1.9039,0.6126 0.6126,1.9039 1.9039,-0.6126 z m -4.6506,-12.2003 0.9718,-1.748 v 0 z m -3.1253,0.6183 1.5166,1.3038 0.0096,-0.0112 0.0094,-0.0112 z m -0.5586,1.2545 -1.9768,-0.3035 -0.0022,0.0142 -0.002,0.0142 z m 3.4876,11.8871 0.6126,1.9039 1.9039,-0.6126 -0.6126,-1.9039 z m -3.6338,1.1693 -5.5971,-17.3944 -3.8077,1.2252 5.5971,17.3944 z m -6.8883,-14.8779 5.2659,-1.6945 -1.2253,-3.8077 -5.2659,1.6944 z m 2.7494,-2.9857 1.0276,3.1935 3.8077,-1.2252 -1.0276,-3.1935 z m 3.544,4.4847 0.1926,-0.0619 -1.2253,-3.8077 -0.1925,0.0619 z m 1.5796,-1.9278 c 0.0148,-0.781 0.2334,-1.4008 0.6317,-1.9338 l -3.2042,-2.3944 c -0.9295,1.244 -1.3971,2.6861 -1.4268,4.2523 z m 0.6317,-1.9338 c 0.3838,-0.5137 0.9446,-0.9279 1.7956,-1.2018 L 28.836,32.9633 c -1.5347,0.4938 -2.8306,1.3519 -3.7746,2.6151 z m 1.7956,-1.2018 c 0.8668,-0.2789 1.5678,-0.2663 2.1747,-0.0704 l 1.2288,-3.8065 c -1.5128,-0.4884 -3.0796,-0.4292 -4.6287,0.0692 z m 2.1747,-0.0704 c 0.5903,0.1906 1.012,0.5267 1.3348,1.0748 l 3.4466,-2.03 c -0.8157,-1.3851 -2.0231,-2.3576 -3.5526,-2.8513 z m 3.6707,1.9636 0.1812,-0.0583 -1.2252,-3.8077 -0.1812,0.0583 z m 1.5686,-1.9765 c -0.0047,-0.6567 0.1937,-1.2427 0.661,-1.822 l -3.113,-2.5118 c -1.0217,1.2663 -1.5596,2.7417 -1.5479,4.3625 z m 0.668,-1.8307 c 0.465,-0.5829 1.1272,-1.0492 2.0874,-1.3582 l -1.2252,-3.8077 c -1.6067,0.517 -2.97,1.3939 -3.9892,2.6715 z m 2.0874,-1.3582 c 1.1974,-0.3853 2.1361,-0.2844 2.9677,0.1576 l 1.8774,-3.532 c -1.9021,-1.0111 -3.9761,-1.1072 -6.0703,-0.4333 z m 2.974,0.161 c 0.7931,0.4179 1.4884,1.206 1.9607,2.6736 l 3.8077,-1.2252 c -0.7084,-2.2016 -1.9678,-3.967 -3.9036,-4.9871 z m 1.9607,2.6736 3.7678,11.7095 3.8077,-1.2252 -3.7678,-11.7095 z m 5.059,9.193 -5.5377,1.7819 1.2253,3.8077 5.5377,-1.7818 z m -3.0212,3.0732 -3.3597,-10.4412 -3.8077,1.2252 3.3597,10.4412 z M 43.8434,38.1584 c -0.3799,-1.1806 -1.0768,-2.2948 -2.2817,-2.9259 l -1.8559,3.5434 c 0.0023,0.0012 0.0338,0.0158 0.0894,0.091 0.0613,0.0829 0.1517,0.2408 0.2405,0.5167 z m -2.2671,-2.9181 c -1.1255,-0.6015 -2.3457,-0.6479 -3.5101,-0.2732 l 1.2252,3.8077 c 0.255,-0.082 0.3381,-0.0396 0.3998,-0.0066 z m -3.5101,-0.2732 c -1.2194,0.3923 -2.2399,1.1857 -2.782,2.434 l 3.669,1.5932 c 0.0197,-0.0453 0.0371,-0.0652 0.0594,-0.0841 0.0279,-0.0238 0.1053,-0.0796 0.2788,-0.1354 z m -2.7828,2.436 c -0.5132,1.1852 -0.4505,2.434 -0.0764,3.5967 l 3.8078,-1.2252 c -0.1603,-0.4981 -0.0924,-0.709 -0.0607,-0.7822 z m -0.0764,3.5967 3.3415,10.3846 3.8077,-1.2252 -3.3414,-10.3846 z m 4.6328,7.8681 -5.3225,1.7127 1.2252,3.8077 5.3225,-1.7127 z M 37.0337,51.8718 33.6558,41.374 29.8481,42.5992 33.226,53.097 Z M 33.6558,41.374 c -0.3731,-1.1597 -1.0654,-2.2045 -2.2047,-2.8379 l -1.9436,3.4961 c 0.0378,0.021 0.1939,0.1111 0.3406,0.567 z m -2.2047,-2.8379 c -1.1324,-0.6296 -2.3681,-0.6785 -3.543,-0.3004 l 1.2253,3.8077 c 0.2595,-0.0835 0.3295,-0.036 0.3741,-0.0112 z m -3.543,-0.3004 c -0.8048,0.259 -1.5277,0.7118 -2.0897,1.3853 l 3.0712,2.5628 c 0.0273,-0.0327 0.0822,-0.0884 0.2438,-0.1404 z m -2.0706,1.3628 c -0.5629,0.6547 -0.892,1.4285 -1.0189,2.2549 l 3.9537,0.607 c 0.0238,-0.1553 0.067,-0.2178 0.0983,-0.2542 z m -1.0231,2.2833 c -0.1173,0.8452 -0.0042,1.6833 0.2524,2.4809 l 3.8077,-1.2252 c -0.1126,-0.35 -0.1163,-0.574 -0.0981,-0.7056 z m 0.2524,2.4809 3.3123,10.2939 3.8078,-1.2252 -3.3124,-10.2939 z m 4.6036,7.7775 -5.5377,1.7818 1.2252,3.8078 5.5377,-1.7819 z"
       fill="#ffffff"
       mask="url(#path-10-outside-3_4_31)"
       id="path14" />
    <path
       d="m 54.3516,47.1818 -0.1212,-18.2723 5.5316,-0.0367 0.0223,3.3547 0.2022,-0.0013 c 0.3733,-1.1129 1.0099,-1.9935 1.9097,-2.6419 0.8999,-0.6483 1.9763,-0.9767 3.2294,-0.985 1.2689,-0.0084 2.3575,0.3095 3.2659,0.9539 0.9085,0.6443 1.4892,1.5128 1.7423,2.6056 l 0.1904,-0.0012 c 0.3338,-1.0888 0.9942,-1.9616 1.9812,-2.6185 0.987,-0.6648 2.1546,-1.0017 3.5028,-1.0107 1.7289,-0.0114 3.1363,0.5344 4.2223,1.6375 1.0858,1.0953 1.6352,2.6064 1.648,4.5336 L 81.7601,47 75.9429,47.0386 75.8701,36.0704 c -0.006,-0.912 -0.2446,-1.6044 -0.7156,-2.0771 -0.4712,-0.4807 -1.0795,-0.7185 -1.825,-0.7136 -0.801,0.0053 -1.4297,0.2712 -1.8862,0.7977 -0.4486,0.5185 -0.6701,1.2139 -0.6643,2.0863 l 0.0724,10.9087 -5.5912,0.0371 -0.0731,-11.0277 c -0.0056,-0.8486 -0.2401,-1.5172 -0.7033,-2.0058 -0.4633,-0.4887 -1.0716,-0.7305 -1.825,-0.7255 -0.5076,0.0034 -0.9548,0.1293 -1.3418,0.3777 -0.387,0.2405 -0.6901,0.5835 -0.9092,1.0291 -0.2112,0.4456 -0.3148,0.9697 -0.3108,1.5724 l 0.0717,10.8135 z"
       fill="#fbc7f6"
       id="path16" />
    <path
       d="m 54.3516,47.1818 -2,0.0133 0.0133,2 1.9999,-0.0133 z m -0.1212,-18.2723 -0.0133,-1.9999 -2,0.0132 0.0133,2 z m 5.5316,-0.0367 2,-0.0133 -0.0133,-1.9999 -2,0.0133 z m 0.0223,3.3547 -2,0.0133 0.0133,1.9999 1.9999,-0.0132 z m 0.2022,-0.0013 0.0133,1.9999 1.4285,-0.0095 0.4544,-1.3544 z m 1.9097,-2.6419 1.1692,1.6227 v 0 z m 6.4953,-0.0311 -1.157,1.6313 v 0 z m 1.7423,2.6056 -1.9484,0.4513 0.3612,1.5593 1.6005,-0.0106 z m 0.1904,-0.0012 0.0132,1.9999 1.4685,-0.0097 0.4304,-1.404 z m 1.9812,-2.6185 1.1081,1.665 0.0093,-0.0062 z m 7.7251,0.6268 -1.4253,1.4031 0.005,0.0051 z M 81.7601,47 l 0.0132,2 2,-0.0133 -0.0133,-2 z m -5.8172,0.0386 -2,0.0133 0.0133,1.9999 2,-0.0132 z m -0.7884,-13.0453 -1.4284,1.3999 0.0058,0.006 0.0058,0.0058 z m -3.7112,0.0841 -1.5111,-1.3102 -0.0013,0.0016 z m -0.5919,12.995 0.0133,1.9999 1.9999,-0.0132 -0.0133,-2 z m -5.5912,0.0371 -1.9999,0.0132 0.0133,2 1.9999,-0.0133 z M 64.4838,34.076 65.9352,32.7 v 0 z m -3.1668,-0.3478 1.0556,1.6987 0.0125,-0.0077 0.0124,-0.008 z m -0.9092,1.0291 -1.7948,-0.8825 -0.0063,0.0129 -0.0062,0.013 z m -0.2391,12.3859 0.0133,2 2,-0.0133 -0.0133,-1.9999 z m -3.8172,0.0254 -0.1212,-18.2724 -3.9999,0.0266 0.1212,18.2723 z m -2.1079,-16.2591 5.5317,-0.0367 -0.0266,-3.9999 -5.5316,0.0367 z m 3.5185,-2.0234 0.0222,3.3547 3.9999,-0.0266 -0.0222,-3.3547 z m 2.0354,5.3414 0.2023,-0.0014 -0.0266,-3.9999 -0.2022,0.0013 z m 2.0852,-1.3653 c 0.2484,-0.7405 0.6429,-1.2662 1.1827,-1.6552 L 60.727,27.9617 c -1.2598,0.9078 -2.1385,2.1433 -2.6366,3.6284 z m 1.1827,-1.6552 c 0.5202,-0.3749 1.1794,-0.6018 2.0734,-0.6077 l -0.0265,-4 c -1.6121,0.0107 -3.1058,0.4405 -4.3853,1.3624 z m 2.0734,-0.6077 c 0.9106,-0.0061 1.5755,0.2162 2.0957,0.5852 l 2.3141,-3.2627 c -1.2967,-0.9197 -2.809,-1.3333 -4.4363,-1.3225 z m 2.0957,0.5852 c 0.5059,0.3588 0.8074,0.806 0.9509,1.4256 l 3.8969,-0.9025 c -0.3627,-1.566 -1.2228,-2.856 -2.5337,-3.7858 z m 2.9126,2.9743 0.1903,-0.0013 -0.0265,-3.9999 -0.1903,0.0013 z m 2.0892,-1.415 c 0.1925,-0.6278 0.5576,-1.1274 1.1772,-1.5397 l -2.2162,-3.33 c -1.3544,0.9014 -2.3101,2.1475 -2.7853,3.6972 z m 1.1865,-1.5459 c 0.6184,-0.4166 1.39,-0.6628 2.3987,-0.6695 l -0.0266,-3.9999 c -1.6877,0.0112 -3.2513,0.4387 -4.6068,1.3518 z m 2.3987,-0.6695 c 1.2578,-0.0084 2.123,0.3695 2.7837,1.0406 l 2.8505,-2.8061 c -1.5112,-1.5352 -3.4608,-2.249 -5.6608,-2.2344 z m 2.7887,1.0457 c 0.6312,0.6366 1.0581,1.597 1.0683,3.1387 l 3.9999,-0.0266 c -0.0153,-2.3126 -0.6871,-4.3746 -2.2277,-5.9284 z m 1.0683,3.1387 0.0816,12.3005 3.9999,-0.0266 -0.0816,-12.3005 z m 2.0683,10.2873 -5.8172,0.0385 0.0266,4 L 81.7733,49 Z m -3.804,2.0252 -0.0727,-10.9681 -3.9999,0.0265 0.0727,10.9682 z M 77.8701,36.0572 C 77.8619,34.817 77.5313,33.5451 76.5712,32.5816 l -2.8335,2.8234 c 0.0019,0.0019 0.0276,0.0252 0.0581,0.1136 0.0336,0.0975 0.0725,0.2753 0.0744,0.5651 z M 76.5828,32.5933 C 75.6895,31.682 74.5394,31.2716 73.3163,31.2798 l 0.0265,3.9999 c 0.2678,-0.0018 0.3344,0.0636 0.3833,0.1135 z m -3.2665,-1.3135 c -1.281,0.0085 -2.4925,0.4591 -3.3841,1.4874 l 3.0221,2.6204 c 0.0324,-0.0373 0.055,-0.051 0.0819,-0.0624 0.0338,-0.0143 0.1243,-0.0443 0.3066,-0.0455 z m -3.3854,1.489 c -0.8451,0.9766 -1.1599,2.1867 -1.1518,3.4082 l 3.9999,-0.0266 c -0.0035,-0.5233 0.1245,-0.7041 0.1767,-0.7644 z m -1.1518,3.4082 0.0723,10.9086 3.9999,-0.0265 -0.0723,-10.9087 z m 2.059,8.8954 -5.5911,0.0371 0.0265,3.9999 5.5912,-0.0371 z m -3.5779,2.0238 -0.0732,-11.0276 -3.9999,0.0265 0.0732,11.0276 z M 67.187,36.0686 C 67.179,34.8503 66.832,33.6459 65.9352,32.7 l -2.9029,2.7519 c 0.0298,0.0314 0.1517,0.1643 0.1548,0.6432 z M 65.9352,32.7 c -0.8914,-0.9403 -2.0555,-1.3576 -3.2897,-1.3495 l 0.0266,4 c 0.2726,-0.0019 0.3252,0.0645 0.3602,0.1015 z m -3.2897,-1.3495 c -0.8454,0.0056 -1.6709,0.2208 -2.409,0.6947 l 2.161,3.366 c 0.0358,-0.023 0.1049,-0.0596 0.2746,-0.0607 z m -2.3841,0.679 c -0.7333,0.4556 -1.2795,1.0951 -1.6484,1.8453 l 3.5895,1.7651 c 0.0694,-0.141 0.1293,-0.1876 0.1701,-0.213 z m -1.6609,1.8712 c -0.3654,0.771 -0.509,1.6045 -0.5035,2.4423 l 4,-0.0265 C 62.0945,35.9488 62.1581,35.734 62.215,35.614 Z M 58.097,36.343 58.1688,47.1565 62.1687,47.13 62.097,36.3165 Z m 2.0585,8.8003 -5.8172,0.0386 0.0265,3.9999 5.8172,-0.0386 z"
       fill="#ffffff"
       mask="url(#path-12-outside-4_4_31)"
       id="path17" />
    <path
       d="m 93.0601,39.5616 -2.5773,10.0974 -5.6366,-1.4387 4.5191,-17.7051 5.36,1.3681 -0.8297,3.2506 0.1959,0.05 c 0.6685,-0.9835 1.5538,-1.662 2.6559,-2.0355 1.1041,-0.3812 2.3093,-0.4051 3.6156,-0.0716 1.245,0.3177 2.253,0.8738 3.024,1.6682 0.781,0.7886 1.298,1.7472 1.55,2.8756 0.262,1.1227 0.219,2.3478 -0.128,3.6753 l -2.88,11.2847 -5.6368,-1.4387 2.598,-10.1782 c 0.2587,-0.9816 0.2051,-1.8138 -0.1609,-2.4966 -0.3582,-0.6807 -0.9831,-1.1349 -1.8745,-1.3624 -0.5917,-0.151 -1.1476,-0.1538 -1.6676,-0.0082 -0.5105,0.1398 -0.9494,0.4165 -1.3169,0.8302 -0.3599,0.4157 -0.6299,0.9606 -0.8102,1.6349 z"
       fill="#fbc7f6"
       id="path19" />
    <path
       d="M 93.0601,39.5616 91.128,39.045 91.125,39.0559 91.1222,39.067 Z m -2.5773,10.0974 -0.4947,1.9379 1.9379,0.4946 0.4946,-1.9379 z m -5.6366,-1.4387 -1.9379,-0.4946 -0.4946,1.9378 1.9379,0.4947 z m 4.5191,-17.7051 0.4946,-1.9378 -1.9378,-0.4947 -0.4947,1.9379 z m 5.36,1.3681 1.9378,0.4946 0.4947,-1.9378 -1.9379,-0.4947 z m -0.8297,3.2506 -1.9379,-0.4947 -0.4946,1.9379 1.9378,0.4946 z m 0.1959,0.05 -0.4946,1.9378 1.3598,0.3471 0.7889,-1.1606 z m 2.6559,-2.0355 0.6419,1.8942 0.0108,-0.0037 z m 6.6396,1.5966 -1.435,1.3932 0.007,0.007 0.007,0.007 z m 1.55,2.8756 -1.952,0.4362 0.002,0.0091 0.002,0.009 z m -0.128,3.6753 -1.935,-0.5059 -0.003,0.0112 z m -2.88,11.2847 -0.495,1.9378 1.938,0.4947 0.495,-1.9379 z m -5.6368,-1.4387 -1.9378,-0.4947 -0.4947,1.9379 1.9379,0.4946 z m 2.598,-10.1782 -1.934,-0.5097 -0.002,0.0075 -0.0019,0.0076 z m -0.1609,-2.4966 -1.7698,0.9315 0.0035,0.0067 0.0036,0.0067 z m -3.5421,-1.3706 0.5284,1.9289 0.0106,-0.0029 z m -1.3169,0.8302 -1.4952,-1.3283 -0.0085,0.0096 -0.0084,0.0097 z m -2.7481,1.1403 -2.5773,10.0974 3.8757,0.9892 2.5774,-10.0974 z m -0.1448,8.6541 -5.6366,-1.4387 -0.9892,3.8758 5.6365,1.4387 z m -4.1933,0.9938 4.5191,-17.705 -3.8758,-0.9893 -4.5191,17.7051 z m 2.0866,-16.2618 5.3599,1.3681 0.9893,-3.8758 -5.36,-1.368 z m 3.9167,-1.0644 -0.8297,3.2505 3.8757,0.9893 0.8297,-3.2506 z m 0.6135,5.683 0.196,0.05 0.9893,-3.8757 -0.196,-0.05 z m 2.3447,-0.7635 c 0.4296,-0.6321 0.9634,-1.0351 1.6437,-1.2656 l -1.2838,-3.7884 c -1.5239,0.5165 -2.7607,1.4705 -3.6681,2.8054 z m 1.6545,-1.2693 c 0.68,-0.2348 1.4808,-0.2763 2.4683,-0.0242 l 0.9896,-3.8758 c -1.6256,-0.4148 -3.2352,-0.4086 -4.7633,0.119 z m 2.4683,-0.0242 c 0.9456,0.2413 1.6086,0.6341 2.0836,1.1235 l 2.87,-2.7864 c -1.067,-1.0994 -2.42,-1.8187 -3.964,-2.2129 z m 2.0976,1.1375 c 0.505,0.5098 0.845,1.1272 1.019,1.9046 l 3.904,-0.8724 c -0.331,-1.4794 -1.024,-2.7792 -2.081,-3.8466 z m 1.023,1.9227 c 0.175,0.7514 0.166,1.6424 -0.115,2.7152 l 3.87,1.0116 c 0.414,-1.5822 0.489,-3.1414 0.141,-4.6353 z m -0.118,2.7263 -2.88,11.2847 3.876,0.9893 2.88,-11.2847 z m -0.448,9.8415 -5.6361,-1.4387 -0.9893,3.8757 5.6364,1.4387 z m -4.1929,0.9938 2.5979,-10.1781 -3.8757,-0.9893 -2.5979,10.1781 z m 2.5939,-10.163 c 0.347,-1.3146 0.34,-2.6983 -0.332,-3.9512 l -3.5254,1.8897 c 0.0603,0.1125 0.1606,0.3932 -0.0104,1.042 z m -0.325,-3.9378 c -0.673,-1.2793 -1.8268,-2.0313 -3.1495,-2.3689 l -0.9893,3.8758 c 0.4601,0.1174 0.556,0.2737 0.5993,0.356 z m -3.1495,-2.3689 c -0.8861,-0.2261 -1.8014,-0.2482 -2.7013,0.0037 l 1.078,3.852 c 0.1402,-0.0393 0.3367,-0.0558 0.634,0.0201 z m -2.6907,7e-4 c -0.9016,0.247 -1.6713,0.7415 -2.2837,1.4309 l 2.9903,2.6567 c 0.1226,-0.138 0.2309,-0.197 0.3502,-0.2297 z m -2.3006,1.4502 c -0.6041,0.6977 -0.9922,1.537 -1.2302,2.4273 l 3.8642,1.0332 c 0.1225,-0.4582 0.2745,-0.7089 0.3901,-0.8424 z"
       fill="#ffffff"
       mask="url(#path-14-outside-5_4_31)"
       id="path20" />
    <path
       d="m 112.325,57.9028 c -1.732,-0.8456 -3.044,-1.9275 -3.936,-3.2457 -0.885,-1.3147 -1.349,-2.7681 -1.392,-4.3603 -0.04,-1.5993 0.349,-3.2363 1.167,-4.9111 0.821,-1.6819 1.873,-2.9953 3.155,-3.9402 1.293,-0.9485 2.73,-1.4781 4.31,-1.5888 1.588,-0.1071 3.241,0.2586 4.959,1.0973 1.518,0.7412 2.706,1.6611 3.564,2.7597 0.865,1.102 1.369,2.3104 1.513,3.6249 0.154,1.3109 -0.08,2.6486 -0.702,4.0129 l -4.885,-2.3855 c 0.311,-0.8896 0.348,-1.688 0.11,-2.3952 -0.23,-0.7037 -0.719,-1.2382 -1.467,-1.6036 -0.606,-0.2958 -1.22,-0.384 -1.844,-0.2647 -0.619,0.1123 -1.219,0.4371 -1.799,0.9746 -0.57,0.5339 -1.091,1.2854 -1.565,2.2547 -0.473,0.9692 -0.748,1.8496 -0.826,2.6413 -0.067,0.7881 0.044,1.4645 0.333,2.0293 0.292,0.5577 0.742,0.9844 1.347,1.2802 0.485,0.2366 0.963,0.3421 1.435,0.3164 0.478,-0.0223 0.936,-0.1738 1.373,-0.4545 0.441,-0.2879 0.834,-0.7049 1.18,-1.2508 l 4.886,2.3855 c -0.711,1.3297 -1.628,2.3474 -2.749,3.0532 -1.114,0.7092 -2.372,1.0704 -3.773,1.0836 -1.39,0.0095 -2.855,-0.3616 -4.394,-1.1132 z"
       fill="#fbc7f6"
       id="path22" />
    <path
       d="m 108.389,54.6571 -1.659,1.1168 0.003,0.0041 z m -1.392,-4.3603 -2,0.0498 0.001,0.0046 z m 4.322,-8.8513 -1.183,-1.6125 -0.004,0.0025 z m 4.31,-1.5888 -0.134,-1.9954 -0.005,3e-4 z m 8.523,3.857 -1.576,1.2311 0.003,0.0039 z m 1.513,3.6249 -1.988,0.2172 10e-4,0.0083 0.001,0.0082 z m -0.702,4.0129 -0.877,1.7972 1.845,0.9011 0.852,-1.8686 z m -4.885,-2.3855 -1.888,-0.6597 -0.586,1.6773 1.596,0.7796 z m 0.11,-2.3952 -1.901,0.6215 0.003,0.0073 0.002,0.0072 z m -3.311,-1.8683 0.357,1.968 0.01,-0.0018 0.01,-0.0019 z m -1.799,0.9746 -1.36,-1.4671 -0.008,0.0079 z m -2.391,4.896 -1.99,-0.1953 -0.002,0.0129 -10e-4,0.0128 z m 0.333,2.0293 -1.78,0.9112 0.004,0.009 0.005,0.0089 z m 2.782,1.5966 -0.093,-1.9979 -0.008,4e-4 -0.008,4e-4 z m 1.373,-0.4545 1.081,1.6828 0.007,-0.0042 0.006,-0.0043 z m 1.18,-1.2508 0.878,-1.7972 -1.609,-0.7854 -0.958,1.5119 z m 4.886,2.3855 1.763,0.9431 0.979,-1.8298 -1.865,-0.9105 z m -2.749,3.0532 -1.065,-1.6927 -0.009,0.0055 z m -3.773,1.0836 0.014,1.9999 h 0.005 z m -3.517,-2.9104 c -1.483,-0.7245 -2.498,-1.5963 -3.156,-2.5694 l -3.313,2.2418 c 1.125,1.6632 2.734,2.9552 4.714,3.922 z m -3.154,-2.5653 c -0.672,-0.9983 -1.019,-2.0829 -1.052,-3.2979 l -3.998,0.1088 c 0.053,1.9694 0.634,3.7916 1.732,5.4227 z m -1.052,-3.2933 c -0.03,-1.2293 0.265,-2.5497 0.965,-3.9837 l -3.595,-1.7552 c -0.935,1.9156 -1.418,3.8692 -1.369,5.8385 z m 0.965,-3.9837 c 0.704,-1.4428 1.564,-2.4851 2.544,-3.2077 l -2.373,-3.2201 c -1.583,1.1671 -2.827,2.7517 -3.766,4.6726 z m 2.541,-3.2053 c 0.992,-0.7277 2.068,-1.1222 3.267,-1.2061 l -0.279,-3.9903 c -1.963,0.1374 -3.761,0.8021 -5.354,1.9714 z m 3.262,-1.2058 c 1.175,-0.0793 2.48,0.1829 3.946,0.899 l 1.755,-3.5944 c -1.968,-0.9613 -3.969,-1.4306 -5.97,-1.2955 z m 3.946,0.899 c 1.302,0.6358 2.23,1.3797 2.866,2.1936 l 3.152,-2.4622 c -1.08,-1.3832 -2.529,-2.4792 -4.263,-3.3258 z m 2.869,2.1975 c 0.648,0.8265 0.997,1.6864 1.098,2.6071 l 3.976,-0.4344 c -0.186,-1.7083 -0.847,-3.2651 -1.928,-4.6427 z m 1.1,2.6236 c 0.106,0.9005 -0.044,1.8715 -0.536,2.9495 l 3.64,1.6594 c 0.753,-1.6506 1.071,-3.3549 0.868,-5.0762 z m 2.162,1.982 -4.886,-2.3855 -1.755,3.5944 4.886,2.3855 z m -3.875,0.0714 c 0.418,-1.1965 0.531,-2.4627 0.119,-3.6909 l -3.793,1.272 c 0.063,0.1861 0.101,0.5168 -0.102,1.0995 z m 0.123,-3.6765 c -0.42,-1.2842 -1.323,-2.2089 -2.491,-2.7792 l -1.755,3.5944 c 0.329,0.1605 0.404,0.3048 0.444,0.4279 z M 119.598,43.17 c -0.968,-0.473 -2.021,-0.6378 -3.097,-0.4317 l 0.753,3.9285 c 0.17,-0.0327 0.346,-0.021 0.589,0.0976 z m -3.077,-0.4354 c -1.08,0.1956 -2.014,0.7448 -2.803,1.4754 l 2.719,2.9343 c 0.372,-0.3444 0.638,-0.4449 0.797,-0.4738 z m -2.811,1.4833 c -0.801,0.7503 -1.452,1.7262 -1.994,2.8363 l 3.595,1.7551 c 0.404,-0.8283 0.796,-1.3555 1.134,-1.6729 z m -1.994,2.8363 c -0.543,1.1121 -0.912,2.227 -1.019,3.3236 l 3.98,0.3906 c 0.048,-0.4867 0.23,-1.1327 0.634,-1.9591 z m -1.022,3.3493 c -0.091,1.0695 0.048,2.1387 0.546,3.1101 l 3.56,-1.8224 c -0.081,-0.1582 -0.163,-0.4418 -0.12,-0.9484 z m 0.555,3.128 c 0.505,0.962 1.281,1.6796 2.241,2.1483 l 1.755,-3.5944 c -0.252,-0.1229 -0.374,-0.2588 -0.454,-0.4121 z m 2.241,2.1483 c 0.747,0.3647 1.563,0.563 2.42,0.5162 l -0.217,-3.9941 c -0.085,0.0047 -0.226,-0.0079 -0.448,-0.1165 z m 2.404,0.517 c 0.86,-0.0399 1.655,-0.3152 2.362,-0.7695 l -2.161,-3.3657 c -0.168,0.1073 -0.288,0.135 -0.386,0.1395 z m 2.375,-0.778 c 0.728,-0.4757 1.311,-1.1208 1.776,-1.8544 l -3.379,-2.1414 c -0.227,0.3583 -0.431,0.547 -0.585,0.6471 z m -0.791,-1.1279 4.885,2.3855 1.755,-3.5944 -4.885,-2.3855 z m 3.999,-0.3548 c -0.57,1.0664 -1.262,1.8072 -2.05,2.3036 l 2.13,3.3853 c 1.454,-0.9151 2.595,-2.2097 3.447,-3.8027 z m -2.059,2.3091 c -0.779,0.496 -1.667,0.761 -2.717,0.7709 l 0.037,3.9998 c 1.751,-0.0165 3.379,-0.4739 4.828,-1.3964 z m -2.712,0.7708 c -1.018,0.007 -2.178,-0.2634 -3.504,-0.9104 L 111.447,59.7 c 1.754,0.8563 3.524,1.328 5.286,1.3159 z"
       fill="#ffffff"
       mask="url(#path-16-outside-6_4_31)"
       id="path23" />
    <path
       d="m 23.1071,62.3471 c 12,-4.5001 53,-21.9999 96.4999,7.0002"
       stroke="#fbc7f6"
       stroke-linecap="round"
       id="path24" />
    <path
       d="m 23.1071,62.3471 c 12,-4.5001 53,-21.9999 96.4999,7.0002"
       stroke="#fbc7f6"
       stroke-linecap="round"
       id="path25" />
    <rect
       x="60.317902"
       y="12.0499"
       width="7.6616502"
       height="7.6616502"
       rx="2"
       transform="rotate(-13.8894,60.3179,12.0499)"
       fill="#ffffff"
       stroke="#fbc7f6"
       stroke-width="2"
       id="rect25" />
    <rect
       x="82.423698"
       y="6.2540498"
       width="10.2031"
       height="10.2031"
       rx="2"
       transform="rotate(17.4674,82.4237,6.25405)"
       fill="#ffffff"
       stroke="#fbc7f6"
       stroke-width="2"
       id="rect26" />
  </g>
</svg>
